<?xml version="1.0" standalone="no"?>
<!DOCTYPE svg PUBLIC "-//W3C//DTD SVG 20010904//EN"
 "http://www.w3.org/TR/2001/REC-SVG-20010904/DTD/svg10.dtd">
<svg version="1.0" xmlns="http://www.w3.org/2000/svg"
 width="1024.000000pt" height="1024.000000pt" viewBox="0 0 1024.000000 1024.000000"
 preserveAspectRatio="xMidYMid meet">

<g transform="translate(0.000000,1024.000000) scale(0.100000,-0.100000)"
fill="#000000" stroke="none">
<path d="M8486 8160 c-54 -16 -255 -82 -445 -145 l-346 -117 -51 16 c-117 37
-279 38 -384 5 -58 -19 -186 -88 -211 -115 -15 -16 -54 -34 -109 -50 -241 -72
-614 -201 -682 -236 -141 -73 -158 -99 -415 -608 -123 -245 -234 -474 -246
-510 -21 -66 -29 -180 -15 -231 l7 -25 -67 23 c-122 41 -292 27 -404 -34 -127
-69 -227 -235 -228 -379 0 -45 6 -41 -153 -105 l-49 -19 4 70 3 70 -400 0
c-425 0 -1135 -25 -1343 -46 -28 -3 -52 -1 -52 4 0 12 347 596 416 699 84 127
177 201 310 249 151 55 721 104 1204 104 187 0 565 -15 630 -25 35 -5 35 -5
110 107 41 62 76 116 78 119 4 8 -186 27 -408 40 -218 13 -847 6 -1025 -11
-60 -5 -135 -12 -165 -15 -423 -35 -615 -96 -776 -247 -90 -85 -159 -180 -330
-455 -148 -240 -314 -505 -320 -512 -2 -2 -1 39 3 91 11 173 -11 248 -87 292
-63 38 -278 20 -422 -34 -82 -31 -131 -70 -162 -131 -45 -92 -32 -190 35 -258
51 -51 110 -73 314 -118 88 -20 162 -37 164 -39 4 -3 -12 -25 -216 -302 -247
-333 -311 -452 -352 -658 -33 -167 -44 -354 -37 -634 12 -483 47 -761 156
-1220 73 -307 99 -369 185 -449 91 -84 102 -86 415 -86 208 0 284 3 314 14 49
17 121 83 147 133 22 42 27 44 124 29 33 -6 85 -12 115 -16 30 -3 71 -8 90
-10 19 -2 69 -7 110 -10 41 -3 152 -12 245 -20 327 -27 683 -37 1165 -32 504
5 731 19 1174 72 115 14 214 25 221 25 7 0 19 -15 26 -32 19 -46 75 -106 123
-130 37 -20 62 -22 266 -26 257 -5 348 5 423 46 105 57 161 150 216 358 149
570 198 968 188 1526 -9 488 -45 620 -258 939 l-100 149 -97 0 c-141 0 -274
35 -369 97 -21 14 -20 15 29 61 28 26 63 69 78 95 16 29 31 44 35 38 11 -18
96 -57 154 -71 95 -22 223 6 318 71 26 18 75 61 108 96 32 35 67 63 77 63 24
0 677 144 795 175 218 57 363 175 459 372 66 133 85 234 91 473 5 194 -8 368
-39 540 l-12 65 -7 -130 c-24 -439 -154 -787 -363 -971 -93 -82 -151 -103
-491 -179 -180 -40 -516 -124 -550 -137 -16 -6 -66 -46 -110 -88 -89 -84 -139
-113 -196 -112 -74 1 -104 41 -104 141 1 82 32 154 100 229 119 132 318 231
707 352 152 48 166 54 210 97 26 26 46 48 45 49 -2 2 -25 -3 -52 -10 -90 -25
-228 -57 -230 -54 -2 2 60 48 138 103 252 180 557 459 681 625 123 164 139
284 51 388 -70 83 -230 115 -387 77 -221 -54 -512 -204 -878 -453 -73 -49
-114 -73 -99 -56 25 28 49 66 49 79 0 3 -8 1 -17 -4 -10 -5 -142 -51 -293
-102 -151 -51 -322 -109 -380 -129 l-105 -36 -60 -120 c-33 -65 -112 -225
-175 -354 -127 -259 -170 -331 -227 -376 -57 -46 -81 -56 -134 -58 -88 -2
-144 65 -136 165 4 48 31 109 185 420 99 200 199 404 221 454 50 107 78 140
149 171 78 35 592 211 686 235 68 17 88 27 126 64 115 110 262 128 481 59 l78
-25 63 26 c174 72 398 151 609 216 129 39 251 82 271 95 49 32 67 84 45 136
-33 79 -103 92 -251 48z m27 -573 c47 -20 60 -39 46 -68 -21 -44 -336 -298
-675 -544 -283 -205 -839 -601 -916 -651 -79 -52 -109 -111 -235 -468 -39
-113 -87 -212 -131 -272 -34 -46 -118 -94 -166 -94 -67 0 -126 67 -126 143 0
42 23 122 140 482 136 421 127 406 374 589 858 636 1490 966 1689 883z m-3071
-1659 c41 -12 119 -76 338 -277 63 -59 161 -148 217 -199 113 -103 143 -151
143 -225 0 -89 -49 -155 -131 -177 -76 -21 -75 -21 -401 274 -84 77 -200 183
-258 236 -58 53 -126 116 -152 139 -57 52 -63 69 -43 117 22 53 42 73 100 100
56 27 125 31 187 12z m1 -667 c136 -122 247 -226 247 -230 0 -4 -23 -34 -52
-67 -103 -117 -285 -330 -361 -421 -42 -51 -81 -93 -87 -93 -5 0 -64 51 -132
113 -125 116 -154 145 -147 150 106 81 166 130 214 177 84 80 204 209 217 233
9 18 7 18 -23 -4 -276 -202 -448 -299 -527 -299 -18 0 -211 169 -239 210 -13
19 -12 20 34 20 148 0 338 96 478 240 l60 62 -55 -31 c-87 -51 -229 -117 -299
-141 -87 -29 -212 -44 -292 -36 l-67 7 -108 105 c-60 58 -102 103 -92 100 9
-2 63 -10 119 -17 128 -15 271 -7 367 21 68 19 278 118 367 174 l39 24 46 -38
c25 -21 156 -137 293 -259z m-2932 -449 c177 -98 582 -291 771 -368 62 -25
119 -49 127 -54 21 -12 -101 -125 -198 -184 -155 -93 -315 -133 -483 -122
-268 19 -476 134 -564 312 -34 68 -38 84 -42 177 -6 140 26 255 100 360 l20
28 51 -29 c29 -16 127 -70 218 -120z m4726 83 c74 -133 97 -301 59 -430 -43
-146 -183 -277 -356 -335 -246 -83 -497 -59 -714 68 -33 20 -95 70 -139 111
l-78 76 158 64 c305 123 736 338 943 470 36 22 71 40 79 39 8 -2 29 -30 48
-63z m-1521 -726 c202 -35 368 -148 453 -309 81 -151 79 -311 -4 -469 -84
-160 -212 -256 -415 -312 l-85 -24 -890 -3 c-961 -3 -984 -2 -1139 49 -203 67
-334 191 -398 373 -108 312 119 644 476 696 83 12 1933 12 2002 -1z m-3173
-663 c63 -19 121 -67 148 -122 18 -38 21 -57 16 -110 -6 -77 -36 -130 -99
-171 -37 -25 -51 -28 -124 -28 -76 0 -85 2 -126 31 -26 19 -54 53 -71 85 -26
48 -28 62 -24 118 7 94 61 163 153 196 50 18 70 18 127 1z m4493 -12 c49 -24
111 -96 124 -145 65 -239 -269 -391 -407 -186 -58 86 -53 189 14 266 72 85
175 109 269 65z m-3276 -704 c363 -36 1497 -39 1925 -4 210 16 226 16 348 0
109 -15 274 -52 327 -72 26 -11 -258 -62 -480 -88 -307 -35 -484 -45 -915 -53
-305 -5 -880 7 -1066 23 -224 18 -311 27 -431 44 -167 23 -378 63 -378 70 0 7
115 45 185 61 74 16 272 35 335 32 30 -2 98 -8 150 -13z"/>
<path d="M8115 7375 c-73 -72 28 -178 109 -114 30 23 33 56 11 98 -24 48 -81
56 -120 16z"/>
<path d="M3850 3980 c-166 -9 -270 -49 -347 -133 -53 -57 -68 -88 -83 -164
-16 -79 -2 -142 49 -221 66 -101 163 -166 293 -197 95 -22 1822 -22 1917 0
140 33 258 123 312 238 29 63 31 75 27 145 -6 92 -30 145 -94 208 -52 50 -147
99 -219 114 -61 12 -1673 21 -1855 10z"/>
</g>
</svg>
