<?xml version="1.0" standalone="no"?>
<!DOCTYPE svg PUBLIC "-//W3C//DTD SVG 20010904//EN"
 "http://www.w3.org/TR/2001/REC-SVG-20010904/DTD/svg10.dtd">
<svg version="1.0" xmlns="http://www.w3.org/2000/svg"
 width="1024.000000pt" height="1024.000000pt" viewBox="0 0 1024.000000 1024.000000"
 preserveAspectRatio="xMidYMid meet">

<g transform="translate(0.000000,1024.000000) scale(0.100000,-0.100000)"
fill="#000000" stroke="none">
<path d="M4682 8188 c-12 -29 -57 -147 -102 -263 -45 -115 -103 -266 -130
-335 -58 -149 -187 -485 -240 -625 -21 -55 -88 -230 -150 -390 -62 -159 -136
-353 -165 -430 -29 -77 -112 -294 -184 -482 -72 -189 -190 -497 -262 -684 -71
-188 -128 -343 -126 -345 2 -3 215 2 473 11 679 21 1296 36 1302 30 5 -5 -3
-27 -90 -265 -114 -310 -142 -387 -227 -620 -207 -567 -471 -1271 -596 -1595
-92 -236 -145 -381 -145 -394 0 -3 32 -6 71 -5 l71 1 35 44 c19 24 100 130
179 234 79 105 204 269 277 365 73 96 251 333 397 525 145 193 356 472 469
620 181 239 752 1001 1364 1820 115 154 214 286 220 293 9 11 -124 12 -769 7
-428 -3 -810 -8 -847 -10 -66 -3 -68 -3 -61 18 21 68 404 995 844 2042 67 160
138 328 157 375 19 47 37 91 40 98 4 9 -178 12 -890 12 l-895 0 -20 -52z"/>
<path d="M3078 6967 c-92 -78 -167 -145 -168 -149 0 -3 161 -127 358 -274 196
-147 362 -272 369 -277 8 -6 25 2 52 24 l39 33 -16 32 c-30 57 -457 753 -462
754 -3 0 -80 -64 -172 -143z"/>
<path d="M6946 7067 c-16 -23 -71 -100 -121 -172 -50 -71 -122 -175 -160 -230
-38 -55 -135 -192 -215 -305 -152 -214 -180 -256 -180 -265 0 -24 107 47 634
424 220 157 404 289 409 293 6 3 -5 19 -24 36 -19 16 -94 81 -167 146 -74 64
-137 116 -140 116 -4 -1 -20 -20 -36 -43z"/>
<path d="M4054 4214 c-87 -53 -204 -124 -259 -158 -55 -35 -185 -116 -290
-181 -209 -130 -234 -147 -235 -157 0 -4 70 -65 156 -135 174 -143 193 -157
198 -152 1 2 99 139 217 304 117 165 255 358 306 429 83 117 98 146 74 146 -4
0 -79 -43 -167 -96z"/>
<path d="M6246 4144 c-17 -20 -26 -40 -22 -50 12 -31 405 -664 412 -664 3 0
44 35 93 78 48 43 125 107 169 142 45 35 78 68 75 73 -8 12 -679 457 -689 456
-5 0 -22 -16 -38 -35z"/>
</g>
</svg>
