<?xml version="1.0" standalone="no"?>
<!DOCTYPE svg PUBLIC "-//W3C//DTD SVG 20010904//EN"
 "http://www.w3.org/TR/2001/REC-SVG-20010904/DTD/svg10.dtd">
<svg version="1.0" xmlns="http://www.w3.org/2000/svg"
 width="1024.000000pt" height="1024.000000pt" viewBox="0 0 1024.000000 1024.000000"
 preserveAspectRatio="xMidYMid meet">

<g transform="translate(0.000000,1024.000000) scale(0.100000,-0.100000)"
fill="#000000" stroke="none">
<path d="M4544 7970 c-76 -11 -174 -46 -240 -86 -109 -65 -180 -149 -361 -421
l-167 -254 -33 38 c-19 21 -47 58 -65 83 -57 82 -67 90 -116 90 -26 0 -52 -6
-62 -15 -14 -13 -20 -9 -59 37 -30 34 -41 54 -35 63 43 59 46 66 39 102 -5 30
-23 53 -80 108 -40 38 -85 89 -100 113 -29 48 -64 66 -113 58 -40 -6 -27 4
-323 -251 -559 -480 -549 -470 -549 -533 0 -34 17 -60 91 -138 31 -33 67 -82
79 -108 13 -25 32 -53 43 -61 28 -19 80 -19 118 1 36 18 45 13 89 -52 28 -40
29 -42 11 -58 -27 -25 -44 -71 -37 -100 3 -14 43 -64 88 -113 45 -48 90 -101
100 -118 17 -29 18 -103 18 -1875 0 -2048 -4 -1907 68 -2044 44 -85 153 -199
232 -243 30 -17 84 -42 120 -55 l65 -23 1865 0 c1797 0 1867 1 1925 19 213 66
365 215 439 430 l21 61 3 2417 c3 2679 7 2492 -63 2635 -76 154 -235 267 -408
292 -89 13 -2517 14 -2603 1z m146 -200 c0 -5 -10 -10 -22 -10 -12 0 -58 -18
-103 -40 -120 -58 -163 -109 -353 -427 -88 -147 -176 -289 -195 -314 -19 -25
-85 -87 -146 -137 -114 -96 -159 -142 -81 -84 25 19 87 63 138 99 89 62 144
120 199 206 13 22 27 37 29 34 3 -3 -23 -51 -58 -108 -44 -71 -78 -115 -114
-143 -47 -38 -347 -289 -657 -551 -72 -60 -139 -122 -151 -137 -20 -28 -20
-43 -27 -1225 -4 -659 -9 -1454 -11 -1768 l-3 -570 27 -56 c16 -31 47 -75 70
-99 58 -57 12 -34 -55 29 -54 50 -82 97 -96 163 -6 27 -11 716 -12 1828 -1
1459 1 1793 12 1830 10 33 31 63 79 110 63 63 407 365 615 539 74 63 111 103
144 155 132 213 339 517 379 559 57 58 113 92 184 111 62 17 208 21 208 6z
m2541 -19 c67 -34 126 -98 149 -159 21 -56 26 -180 11 -272 -6 -37 -8 -25 -12
70 -6 125 -19 166 -69 230 -37 47 -144 103 -227 120 -113 23 -113 23 -73 31
65 14 174 4 221 -20z m-4181 -95 c0 -2 -8 -10 -17 -17 -16 -13 -17 -12 -4 4
13 16 21 21 21 13z m-49 -182 c-72 -75 -131 -140 -131 -145 0 -5 33 12 73 38
39 25 108 70 152 98 100 64 105 67 105 62 0 -8 -482 -444 -591 -534 -13 -11
-23 -5 -67 37 -84 80 -83 84 109 247 88 76 187 154 219 173 33 19 103 63 157
96 54 34 100 62 101 63 2 1 -55 -60 -127 -135z m3829 44 c19 -49 25 -81 25
-143 0 -93 -2 -99 -123 -301 -136 -229 -193 -289 -320 -338 -57 -21 -62 -21
-892 -21 l-835 0 -57 28 c-66 32 -111 82 -132 144 l-15 44 30 -25 c66 -56 62
-56 935 -56 775 0 804 1 867 20 95 29 145 80 279 282 168 253 194 303 200 389
2 21 5 39 8 39 3 0 17 -28 30 -62z m-367 15 c42 -25 77 -78 77 -117 0 -35
-164 -291 -213 -332 -65 -54 -73 -55 -838 -52 l-704 3 -48 23 c-88 44 -120
138 -76 225 37 71 101 170 133 206 64 69 25 65 816 71 393 3 739 2 768 -2 29
-3 67 -15 85 -25z m-3145 -295 c-52 -63 -98 -125 -98 -132 0 -6 73 37 172 100
37 24 65 38 62 31 -13 -28 -538 -487 -558 -487 -15 0 -1 27 63 122 38 57 67
105 66 106 -2 2 -45 -28 -96 -66 -70 -53 -97 -68 -106 -60 -7 6 -13 16 -13 24
0 12 281 277 330 311 16 11 24 12 35 3 17 -14 34 -6 119 57 33 23 62 43 64 43
2 0 -16 -24 -40 -52z m137 -286 c-146 -143 -395 -372 -404 -372 -4 0 -16 10
-27 21 -19 21 -19 21 36 71 190 170 456 378 484 378 6 0 -34 -44 -89 -98z
m605 -1039 c195 -197 362 -369 372 -383 39 -54 11 -128 -57 -150 -27 -9 -39
-8 -62 4 -15 8 -188 176 -384 373 -387 388 -389 391 -352 456 22 37 55 57 98
57 26 0 74 -44 385 -357z m2720 342 c36 -19 50 -43 50 -90 0 -33 -14 -49 -212
-243 -117 -114 -289 -282 -383 -374 -161 -159 -172 -168 -208 -168 -55 0 -97
45 -97 104 -1 41 1 42 347 384 191 189 366 357 387 373 44 33 73 36 116 14z
m133 -332 c-167 -181 -505 -532 -672 -698 l-151 -150 0 -60 c-1 -81 -34 -473
-41 -480 -7 -7 -19 294 -19 478 l0 138 138 133 c249 240 408 384 632 577 180
154 210 179 217 179 2 0 -44 -53 -104 -117z m-3257 -123 c153 -133 313 -281
512 -476 l182 -179 0 -600 0 -600 -203 -200 c-172 -170 -506 -484 -627 -589
l-35 -31 31 35 c77 89 350 385 537 585 l207 220 0 574 0 574 -137 144 c-294
307 -609 653 -581 637 9 -5 60 -47 114 -94z m2091 -496 c29 -22 73 -80 73 -97
0 -6 -9 -2 -20 8 -11 10 -23 15 -28 11 -4 -4 -9 -274 -12 -599 -5 -643 -3
-620 -62 -673 -60 -55 -47 -54 -583 -54 l-496 0 3 -47 3 -48 235 -5 c254 -6
248 -8 -50 -21 -107 -4 -204 -8 -215 -9 -11 0 -30 11 -42 25 l-23 26 0 682 c0
414 4 696 10 716 5 19 20 45 32 59 48 52 43 52 615 49 522 -2 532 -2 560 -23z
m719 -1986 c257 -259 383 -392 388 -412 9 -38 -9 -91 -39 -110 -13 -9 -40 -16
-59 -16 -32 0 -52 17 -263 233 -553 562 -542 550 -543 593 0 26 35 73 64 84
58 24 54 27 452 -372z m-2030 318 c19 -19 34 -41 34 -51 0 -9 15 -22 35 -31
29 -12 138 -14 675 -14 l640 0 104 -107 c92 -96 233 -254 275 -308 15 -19 15
-19 -4 -4 -11 9 -98 84 -193 168 l-173 151 -677 0 -677 -1 -340 -330 c-187
-182 -353 -339 -370 -350 -60 -38 -160 -15 -196 45 -11 18 -19 50 -19 73 0 54
-14 39 415 458 l343 335 47 0 c40 0 52 -5 81 -34z m1518 -1217 c232 -6 491
-14 576 -18 l155 -7 -220 -9 c-272 -12 -2384 -10 -2555 2 l-125 9 215 8 c641
26 1330 31 1954 15z"/>
<path d="M2609 6240 c-174 -265 -304 -584 -369 -907 -92 -452 -77 -882 47
-1308 60 -210 183 -479 300 -661 l58 -89 3 752 c1 413 1 1093 0 1510 l-3 758
-36 -55z"/>
<path d="M7840 4786 l0 -1500 55 87 c197 311 336 709 386 1112 17 129 17 482
0 610 -53 413 -190 799 -402 1130 l-39 60 0 -1499z"/>
</g>
</svg>
