<?xml version="1.0" standalone="no"?>
<!DOCTYPE svg PUBLIC "-//W3C//DTD SVG 20010904//EN"
 "http://www.w3.org/TR/2001/REC-SVG-20010904/DTD/svg10.dtd">
<svg version="1.0" xmlns="http://www.w3.org/2000/svg"
 width="1024.000000pt" height="1024.000000pt" viewBox="0 0 1024.000000 1024.000000"
 preserveAspectRatio="xMidYMid meet">

<g transform="translate(0.000000,1024.000000) scale(0.100000,-0.100000)"
fill="#000000" stroke="none">
<path d="M4765 9004 c-585 -59 -1096 -214 -1570 -478 -453 -252 -801 -540
-1124 -930 -666 -804 -979 -1824 -866 -2826 40 -356 139 -738 272 -1049 288
-676 759 -1262 1363 -1697 200 -145 524 -326 765 -428 118 -49 415 -156 436
-156 5 0 9 177 9 393 0 437 -2 453 -65 547 -19 29 -35 54 -35 56 0 3 12 -2 28
-10 15 -7 104 -39 198 -69 173 -56 225 -77 257 -105 16 -14 17 -49 17 -462 l0
-447 128 -17 c105 -14 374 -35 460 -36 l22 0 0 460 0 460 30 0 30 0 0 -455 0
-455 60 0 60 0 0 454 0 454 33 5 c17 2 35 3 40 0 4 -2 7 -206 7 -454 l0 -449
48 1 c26 0 85 6 132 13 l85 11 3 444 c2 384 4 447 18 462 25 28 119 65 303
119 96 28 182 55 193 61 24 13 23 7 -11 -43 -59 -87 -61 -113 -59 -551 l3
-397 160 54 c853 286 1559 828 2060 1581 315 474 491 909 589 1460 43 237 56
391 56 656 0 350 -23 548 -101 866 -167 685 -525 1314 -1047 1840 -413 416
-945 740 -1532 931 -251 82 -446 126 -735 168 -105 15 -621 28 -720 18z m566
-364 c705 -70 1375 -344 1936 -793 102 -81 334 -307 438 -427 324 -373 584
-861 720 -1350 152 -548 161 -1100 28 -1680 -209 -914 -832 -1744 -1691 -2252
-162 -96 -508 -258 -551 -258 -9 0 -11 44 -9 173 3 159 5 176 27 222 33 67
119 150 216 209 323 196 482 314 659 486 321 312 552 654 719 1065 86 211 156
473 194 730 25 172 25 632 0 795 -94 597 -333 1095 -745 1553 -323 361 -843
693 -1347 862 -194 65 -468 115 -734 135 -336 25 -795 -44 -1140 -172 -144
-53 -413 -183 -546 -263 -622 -375 -1083 -935 -1303 -1580 -152 -445 -192
-996 -107 -1457 120 -650 454 -1273 905 -1687 193 -178 340 -287 588 -435 143
-86 222 -158 263 -241 30 -60 31 -70 36 -223 4 -108 2 -161 -5 -166 -21 -13
-244 83 -437 187 -442 240 -825 560 -1136 949 -419 525 -668 1121 -751 1798
-19 157 -16 594 5 750 113 823 472 1528 1072 2108 553 534 1330 889 2100 961
131 12 477 13 596 1z m-130 -714 c85 -18 137 -45 177 -91 54 -60 48 -65 -81
-65 -101 0 -113 2 -124 20 -26 41 -155 50 -210 15 -26 -17 -47 -55 -58 -103
l-7 -32 36 21 c50 29 174 36 283 16 145 -28 202 -70 211 -155 9 -101 -57 -182
-177 -220 -81 -25 -335 -24 -408 1 -66 23 -124 65 -152 110 -49 80 -47 246 4
334 47 79 142 137 255 156 57 10 189 6 251 -7z m-1078 -211 c-70 -52 -186
-135 -258 -184 -180 -124 -301 -223 -429 -349 -345 -339 -586 -715 -721 -1127
-38 -114 -95 -355 -95 -403 0 -9 -28 -39 -61 -65 l-61 -48 7 63 c30 284 130
619 268 898 72 147 245 410 348 531 239 281 514 506 779 639 89 45 318 138
343 139 5 1 -49 -42 -120 -94z m1829 59 c276 -80 530 -205 743 -367 108 -82
207 -170 251 -224 l37 -44 -74 7 -74 7 -80 72 c-100 90 -280 222 -405 297 -52
31 -198 108 -325 172 -126 63 -223 115 -213 115 9 1 72 -15 140 -35z m-1606
-216 c-11 -94 -46 -472 -48 -518 l-3 -45 -109 -8 c-60 -4 -110 -6 -112 -5 -1
2 6 78 16 168 11 91 20 181 20 200 l0 34 -50 -49 -50 -49 -37 34 c-21 19 -40
36 -42 37 -2 2 47 56 110 120 125 129 121 127 257 131 l53 2 -5 -52z m1674
-24 c150 -35 255 -148 221 -237 -12 -31 -59 -62 -154 -101 -37 -16 -83 -41
-102 -56 l-36 -28 28 -6 c15 -3 87 -13 158 -21 72 -9 133 -19 136 -23 4 -4 10
-33 14 -66 l7 -59 -34 7 c-32 6 -394 43 -473 48 l-40 3 -3 54 c-3 49 0 57 30
88 43 46 139 114 208 148 30 15 63 34 73 43 40 36 3 94 -70 108 -27 5 -41 2
-64 -15 l-29 -22 -66 21 c-36 11 -75 20 -85 20 -10 0 -19 4 -19 10 0 20 63 80
94 89 48 14 134 12 206 -5z m-921 -431 c40 -82 189 -398 382 -812 21 -46 39
-88 39 -93 0 -11 -69 47 -224 191 -61 56 -114 101 -118 101 -4 0 -8 -245 -8
-545 l0 -545 340 0 340 0 0 250 0 250 110 0 110 0 0 -248 0 -249 292 -6 c161
-3 293 -5 295 -4 1 2 3 102 5 224 2 122 7 225 10 229 4 3 52 1 108 -6 l100
-12 0 -118 c0 -64 3 -164 6 -222 l7 -105 211 -7 c116 -4 235 -10 264 -13 l52
-6 0 -97 0 -98 -269 6 c-227 4 -269 3 -269 -9 1 -8 0 -89 0 -181 l-2 -168 -67
0 c-38 0 -85 3 -105 6 l-38 7 0 173 0 174 -300 0 -300 0 0 -190 0 -190 -110 0
-110 0 0 190 0 190 -340 0 -340 0 0 -380 0 -380 -125 0 -125 0 0 380 0 380
-330 0 -330 0 0 -400 0 -400 -115 0 -115 0 0 400 0 400 -305 0 -305 0 0 -325
0 -325 -110 0 -110 0 0 326 0 326 -267 -3 -268 -4 -3 94 c-1 52 1 98 5 102 4
4 76 10 158 13 83 4 201 9 263 12 l112 6 0 219 0 218 33 6 c17 3 67 12 110 19
l77 13 0 -233 c0 -129 4 -235 9 -238 5 -4 142 -3 304 1 l296 6 1 246 c0 134 2
246 4 248 2 2 53 6 114 10 l112 6 0 -256 0 -257 330 0 330 0 0 551 0 551 -74
-69 c-41 -37 -118 -108 -171 -157 -52 -49 -98 -87 -100 -84 -8 7 459 1008 470
1008 3 0 27 -44 54 -97z m2047 -90 c273 -278 524 -714 631 -1093 27 -98 63
-289 63 -334 0 -40 -46 67 -134 314 -82 229 -130 341 -230 536 -91 176 -154
274 -321 499 -130 176 -129 175 -115 175 6 0 54 -44 106 -97z m-4289 -105
c-191 -276 -349 -626 -430 -953 -61 -243 -71 -331 -71 -610 0 -219 4 -282 22
-399 12 -76 21 -141 19 -143 -2 -2 -22 18 -44 44 -92 110 -107 177 -108 478 0
179 4 253 18 335 66 376 198 707 410 1025 60 90 162 224 181 237 18 13 19 9 3
-14z m1427 -130 c-29 -329 -29 -340 -6 -337 40 4 42 1 42 -76 l0 -75 -34 0
c-42 0 -46 -10 -46 -105 0 -86 2 -85 -113 -85 l-82 0 3 91 3 91 -149 -8 -148
-7 4 64 5 64 171 205 171 205 70 6 c39 3 80 6 91 7 19 2 21 -2 18 -40z m1676
27 c319 -26 340 -28 340 -34 0 -3 5 -34 10 -69 l11 -63 -51 -56 c-54 -61 -121
-188 -140 -268 -7 -27 -15 -86 -19 -130 l-6 -80 -105 3 c-57 2 -106 5 -108 6
-8 8 19 160 39 218 30 89 93 193 159 260 31 33 54 61 50 63 -4 2 -85 7 -181
11 -96 4 -182 11 -191 16 -14 7 -18 22 -18 73 0 55 3 65 18 65 9 0 96 -7 192
-15z m1060 -133 l75 -18 17 -99 c9 -55 23 -138 30 -185 12 -77 15 -85 38 -90
22 -5 26 -13 34 -68 5 -34 7 -65 4 -68 -3 -2 -17 0 -32 6 l-28 10 7 -75 c8
-85 12 -82 -75 -61 l-55 12 -9 72 c-8 66 -11 71 -35 76 -30 6 -260 36 -277 36
-7 0 -15 23 -18 53 l-7 52 122 183 c67 100 125 182 128 182 3 -1 40 -9 81 -18z
m-3503 -33 c34 -33 32 -101 -6 -161 -16 -25 -39 -52 -50 -60 -22 -15 -22 -15
7 -27 36 -15 52 -48 52 -107 0 -114 -114 -215 -275 -245 -124 -23 -205 22
-205 113 0 32 2 34 65 54 50 15 65 17 65 7 0 -7 9 -22 20 -33 57 -57 179 30
135 96 -12 19 -24 24 -55 24 -43 0 -46 6 -34 69 5 25 13 33 45 41 35 10 89 59
89 81 0 25 -23 49 -46 49 -24 0 -60 -28 -80 -61 -8 -13 -133 -52 -142 -44 -7
6 39 86 69 120 87 99 280 145 346 84z m4129 -900 c47 -201 60 -517 29 -723
-55 -368 -206 -730 -427 -1025 -85 -113 -262 -298 -368 -384 -248 -200 -539
-344 -872 -432 -127 -33 -321 -69 -338 -63 -5 2 31 39 78 82 l87 79 95 20
c195 39 445 135 617 235 251 147 523 411 708 687 187 281 324 663 365 1022 7
59 10 198 8 336 -1 130 -2 234 0 232 2 -2 10 -32 18 -66z m209 -983 c-58 -460
-221 -862 -462 -1141 -78 -90 -262 -260 -369 -340 -220 -166 -524 -319 -829
-418 -486 -158 -1108 -212 -1640 -142 -540 71 -985 230 -1375 490 -170 114
-259 186 -393 321 -150 149 -213 237 -306 427 -126 255 -213 553 -245 832 l-6
50 41 -65 c29 -45 60 -119 99 -240 91 -278 161 -435 277 -622 358 -580 1055
-965 1943 -1075 201 -24 717 -25 902 0 623 83 1079 251 1455 534 96 72 263
232 352 336 211 249 385 596 500 994 22 77 46 169 53 204 12 61 13 62 16 25 2
-22 -4 -99 -13 -170z m-5210 -138 c10 -29 50 -121 90 -204 207 -428 522 -751
921 -945 150 -73 359 -148 488 -174 l79 -16 78 -81 c44 -45 78 -83 76 -84 -7
-7 -253 48 -363 82 -691 209 -1178 647 -1428 1286 -25 65 -46 123 -46 130 0
11 64 56 82 58 3 0 14 -24 23 -52z m3771 -217 c61 -26 117 -81 139 -135 9 -21
15 -39 13 -41 -2 -1 -44 -7 -95 -14 -51 -6 -99 -14 -106 -17 -10 -3 -17 4 -21
21 -9 34 -61 65 -111 65 -90 0 -142 -71 -152 -207 l-6 -76 40 40 c26 26 56 44
89 53 100 29 240 7 305 -47 77 -65 96 -197 42 -302 -110 -215 -514 -245 -649
-48 -48 70 -68 171 -62 316 10 219 86 341 251 402 75 28 250 23 323 -10z
m-2608 -143 l3 -67 -45 -46 c-89 -94 -146 -248 -146 -397 0 -78 -1 -79 -22
-73 -107 31 -161 52 -166 64 -3 8 0 52 6 99 14 107 62 211 128 282 l47 50
-187 0 -186 0 0 78 0 77 283 -1 282 0 3 -66z m1436 -58 c76 -29 146 -97 169
-163 12 -36 13 -49 4 -52 -7 -2 -61 -5 -120 -8 l-108 -4 -16 28 c-34 57 -135
77 -203 40 -51 -27 -88 -105 -96 -201 -5 -74 -5 -75 12 -48 80 121 389 115
510 -10 67 -69 82 -202 35 -308 -57 -127 -201 -204 -386 -204 -232 0 -387 115
-424 314 -13 73 -14 226 -2 292 25 131 98 242 196 300 99 58 309 69 429 24z
m2117 -689 c-30 -54 -186 -241 -294 -350 -146 -147 -265 -245 -447 -366 -264
-176 -423 -235 -823 -304 -369 -64 -950 -75 -1333 -26 -173 23 -452 81 -579
122 -280 89 -588 294 -864 576 -99 100 -260 293 -261 311 0 5 34 -29 76 -75
269 -295 535 -508 781 -625 278 -131 575 -215 945 -266 139 -19 209 -22 473
-23 269 0 333 3 485 23 602 80 1019 245 1375 543 119 100 374 353 430 427 41
54 53 66 36 33z"/>
<path d="M4805 8529 c-679 -51 -1373 -328 -1900 -758 -266 -217 -507 -486
-711 -792 -108 -164 -272 -485 -338 -667 -76 -206 -139 -459 -178 -712 -18
-123 -22 -188 -22 -425 0 -242 3 -301 23 -435 55 -375 142 -666 291 -979 66
-138 151 -291 162 -291 15 0 88 55 88 66 0 7 -31 73 -69 146 -250 477 -371
964 -371 1493 0 739 262 1450 750 2035 179 214 327 356 545 519 473 356 1020
577 1610 652 148 18 202 20 415 16 510 -11 916 -112 1380 -343 556 -278 971
-641 1302 -1141 261 -395 438 -866 505 -1343 21 -155 24 -604 5 -750 -37 -271
-84 -479 -158 -687 -55 -157 -87 -229 -190 -434 l-83 -166 45 -32 c24 -17 48
-31 52 -31 16 0 177 309 234 450 323 800 328 1672 15 2455 -309 775 -854 1380
-1588 1764 -579 303 -1200 436 -1814 390z"/>
<path d="M4994 7609 c-137 -32 -98 -169 47 -169 85 0 150 52 132 107 -18 54
-95 81 -179 62z"/>
<path d="M4044 6557 c-40 -43 -104 -124 -104 -131 0 -8 78 -8 106 0 19 5 23
16 29 81 4 41 5 76 3 79 -3 2 -18 -11 -34 -29z"/>
<path d="M6926 6434 c-25 -43 -46 -84 -46 -90 0 -9 119 -39 126 -31 5 5 -20
183 -27 191 -4 4 -28 -27 -53 -70z"/>
<path d="M6156 3931 c-77 -51 -73 -156 8 -195 42 -20 67 -20 110 -2 79 33 103
130 47 187 -25 25 -37 29 -83 29 -36 0 -63 -6 -82 -19z"/>
<path d="M4958 3698 c-39 -22 -56 -48 -59 -88 -5 -63 2 -83 40 -121 36 -36 43
-39 96 -39 95 0 155 55 155 143 0 40 -35 96 -70 114 -39 20 -120 16 -162 -9z"/>
</g>
</svg>
