<?xml version="1.0" standalone="no"?>
<!DOCTYPE svg PUBLIC "-//W3C//DTD SVG 20010904//EN"
 "http://www.w3.org/TR/2001/REC-SVG-20010904/DTD/svg10.dtd">
<svg version="1.0" xmlns="http://www.w3.org/2000/svg"
 width="1024.000000pt" height="1024.000000pt" viewBox="0 0 1024.000000 1024.000000"
 preserveAspectRatio="xMidYMid meet">

<g transform="translate(0.000000,1024.000000) scale(0.100000,-0.100000)"
fill="#000000" stroke="none">
<path d="M4746 8768 c-2 -7 -21 -98 -41 -203 -21 -104 -45 -224 -53 -267 l-15
-76 -61 -12 c-112 -21 -300 -70 -426 -112 l-125 -41 -81 84 c-44 46 -134 141
-199 212 -65 70 -122 127 -126 127 -9 0 -443 -260 -571 -342 -43 -28 -78 -55
-78 -61 0 -6 42 -110 94 -232 52 -121 97 -232 101 -245 5 -22 -5 -34 -76 -95
-45 -38 -154 -145 -243 -236 l-161 -166 -35 14 c-19 8 -129 55 -243 105 -114
50 -209 89 -211 87 -14 -15 -250 -384 -331 -517 l-99 -163 55 -55 c30 -31 125
-119 211 -195 l157 -140 -43 -123 c-41 -116 -108 -370 -122 -461 l-6 -41 -231
-38 c-128 -21 -253 -42 -279 -48 l-48 -10 0 -399 c0 -219 3 -399 7 -399 27 0
549 -93 554 -98 3 -4 14 -45 24 -92 21 -100 84 -320 126 -438 16 -46 29 -85
29 -87 0 -2 -96 -92 -212 -201 -117 -109 -214 -200 -215 -203 -3 -6 376 -606
412 -653 l20 -26 186 82 c102 45 216 95 253 111 l67 28 177 -174 c97 -96 206
-200 241 -230 l63 -55 -67 -160 c-37 -87 -86 -205 -110 -261 l-43 -102 36 -24
c21 -14 169 -104 330 -201 l293 -175 37 41 c112 126 341 375 356 387 15 12 33
9 149 -28 73 -22 206 -58 297 -79 l165 -38 52 -245 c28 -134 54 -259 58 -276
l6 -33 387 0 387 0 23 112 c13 62 41 188 63 279 l40 167 62 12 c103 19 254 58
395 102 l134 41 22 -24 c13 -13 85 -94 162 -179 76 -85 157 -175 180 -199 l42
-44 28 20 c32 23 335 208 517 315 64 39 117 71 117 73 0 2 -45 113 -99 247
-54 133 -101 252 -104 263 -4 16 13 36 76 90 44 39 151 139 237 222 87 84 160
153 163 153 4 0 108 -45 231 -100 261 -115 267 -117 282 -93 6 10 49 77 94
148 45 72 137 215 202 320 l120 189 -49 46 c-26 25 -121 112 -211 193 -89 82
-162 152 -162 156 0 4 18 61 40 126 44 130 130 449 130 481 0 19 21 24 273 68
149 26 273 48 273 49 1 1 4 180 8 398 l5 397 -82 15 c-45 8 -168 29 -272 48
l-190 33 -33 145 c-19 80 -58 222 -89 315 l-55 169 51 46 c187 167 360 327
360 335 1 11 -92 164 -273 449 -106 167 -155 236 -166 233 -8 -2 -116 -50
-240 -105 l-225 -102 -247 245 -247 244 99 248 c92 228 98 248 82 260 -37 28
-628 379 -638 379 -5 0 -97 -93 -203 -208 -133 -142 -199 -206 -210 -203 -9 3
-68 21 -131 40 -108 33 -376 101 -429 108 -27 3 -28 10 -110 388 l-38 175
-392 3 c-308 2 -392 0 -395 -10z m754 -1077 c496 -78 920 -262 1310 -569 119
-94 345 -320 431 -432 358 -464 538 -932 555 -1440 18 -504 -131 -1006 -429
-1453 -131 -196 -202 -283 -356 -437 -452 -451 -996 -716 -1598 -781 -161 -17
-534 -6 -678 20 -597 106 -1094 369 -1502 794 -367 383 -625 890 -714 1402
-27 155 -36 457 -20 616 64 609 384 1204 881 1640 279 244 645 445 1011 554
118 36 405 92 524 104 146 14 437 5 585 -18z"/>
<path d="M4329 6986 c-58 -8 -131 -20 -162 -27 l-57 -12 0 -194 0 -193 -27
-11 c-16 -6 -70 -31 -122 -56 -63 -31 -98 -43 -106 -37 -8 5 -78 62 -156 127
-79 64 -148 117 -155 117 -7 0 -75 -62 -152 -137 -127 -127 -237 -254 -337
-392 l-39 -54 60 -56 c32 -31 90 -84 128 -118 l70 -61 -36 -73 c-19 -41 -45
-102 -57 -135 l-23 -61 -111 -12 c-62 -7 -144 -17 -183 -23 l-72 -10 -17 -112
c-22 -141 -22 -382 -1 -531 9 -60 18 -117 21 -126 4 -13 34 -18 163 -28 86 -7
166 -13 176 -15 23 -3 19 3 85 -139 l50 -108 -99 -102 c-54 -56 -108 -114
-118 -128 l-20 -25 118 -145 c117 -143 306 -336 409 -417 l53 -42 97 89 c53
49 118 112 144 139 l49 50 86 -38 c48 -20 110 -45 138 -55 61 -21 58 -11 74
-235 6 -80 12 -150 15 -156 12 -37 506 -55 697 -26 l87 14 10 51 c6 29 18 95
26 147 8 52 18 109 20 125 5 28 -3 38 -92 121 -54 50 -125 125 -158 165 l-59
74 -148 -4 c-174 -4 -279 9 -400 49 -286 95 -514 291 -650 556 -277 542 -49
1194 515 1473 152 75 258 101 450 108 86 3 157 10 157 14 0 25 154 232 231
311 l90 93 -15 119 c-8 65 -17 121 -20 123 -2 2 -46 11 -97 19 -134 21 -401
26 -530 10z"/>
<path d="M5918 6873 c-47 -4 -47 -4 -52 -46 -3 -23 -9 -103 -13 -177 l-8 -135
-115 -37 c-63 -21 -117 -38 -120 -38 -3 0 -40 46 -82 103 -43 56 -95 122 -116
147 l-39 44 -44 -28 c-90 -59 -241 -180 -324 -259 l-85 -82 95 -125 c81 -106
93 -127 82 -141 -6 -9 -36 -51 -65 -93 -29 -42 -58 -76 -64 -76 -18 0 -281 91
-295 102 -13 10 -33 -24 -71 -122 -57 -147 -118 -434 -95 -448 6 -4 79 -25
162 -47 l151 -40 0 -95 0 -95 -160 -45 c-182 -51 -171 -38 -145 -162 34 -161
136 -438 161 -438 7 0 74 23 149 51 76 27 143 48 149 46 6 -3 39 -45 73 -95
l63 -90 -100 -119 c-55 -65 -100 -121 -100 -126 -1 -25 285 -277 401 -354 l37
-24 86 88 c47 49 99 107 116 129 18 21 33 40 35 42 1 2 58 -14 125 -35 l122
-38 -3 -170 -4 -170 75 -12 c133 -21 389 -15 517 12 22 5 22 6 16 180 -6 168
-5 175 13 175 10 0 68 20 127 44 l109 45 66 -72 c37 -39 91 -95 121 -124 l54
-52 76 62 c110 90 255 231 323 315 70 85 78 60 -67 210 -49 51 -90 96 -89 100
0 4 28 63 62 132 34 69 62 131 62 139 0 11 23 12 123 7 67 -4 134 -9 149 -12
25 -5 27 -3 41 63 9 37 21 99 28 136 16 94 7 350 -16 450 l-18 77 -146 0 -146
0 -18 63 c-10 34 -37 102 -59 150 -24 51 -37 91 -32 96 7 6 224 182 243 197 7
6 -122 183 -186 254 -61 67 -184 184 -269 254 l-31 25 -117 -111 -117 -111
-97 45 c-53 25 -114 51 -134 59 -21 7 -38 18 -38 24 0 5 11 82 25 170 13 87
23 161 21 163 -2 2 -46 12 -97 23 -93 21 -365 33 -481 22z m418 -513 c207 -41
383 -139 549 -305 153 -154 239 -303 301 -525 35 -128 44 -342 19 -475 -93
-496 -481 -856 -975 -905 -185 -19 -387 11 -556 81 -280 117 -531 389 -629
684 -40 121 -55 214 -55 350 0 197 33 342 118 510 116 232 337 438 567 526
222 86 433 105 661 59z"/>
<path d="M5919 6196 c-357 -75 -631 -334 -730 -691 -30 -111 -37 -313 -15
-423 30 -147 89 -274 191 -410 119 -158 313 -280 531 -334 132 -32 323 -30
458 6 325 85 586 350 677 686 33 123 33 328 0 455 -85 328 -317 576 -641 686
-88 30 -107 32 -250 35 -105 2 -176 -1 -221 -10z m363 -445 c177 -61 312 -226
338 -411 23 -162 -26 -311 -141 -434 -199 -213 -554 -206 -752 14 -145 161
-177 392 -81 582 34 67 123 160 195 204 122 74 306 93 441 45z"/>
<path d="M4315 5806 c-110 -35 -233 -118 -301 -204 -207 -262 -188 -605 46
-843 86 -88 181 -142 289 -165 96 -20 93 -22 67 52 -27 76 -28 78 -81 94 -68
21 -139 67 -197 128 -146 152 -178 363 -86 559 33 70 143 177 214 209 33 15
60 28 62 30 3 2 41 142 42 152 0 4 -14 1 -55 -12z"/>
</g>
</svg>
