<?xml version="1.0" standalone="no"?>
<!DOCTYPE svg PUBLIC "-//W3C//DTD SVG 20010904//EN"
 "http://www.w3.org/TR/2001/REC-SVG-20010904/DTD/svg10.dtd">
<svg version="1.0" xmlns="http://www.w3.org/2000/svg"
 width="1024.000000pt" height="1024.000000pt" viewBox="0 0 1024.000000 1024.000000"
 preserveAspectRatio="xMidYMid meet">

<g transform="translate(0.000000,1024.000000) scale(0.100000,-0.100000)"
fill="#000000" stroke="none">
<path d="M4910 9853 c-248 -14 -425 -35 -647 -78 -677 -133 -1356 -432 -1928
-848 -416 -303 -828 -733 -1115 -1162 -432 -645 -679 -1299 -781 -2070 -40
-300 -37 -876 7 -1215 97 -756 410 -1503 903 -2155 573 -758 1390 -1348 2281
-1645 395 -132 783 -213 1158 -241 202 -15 645 -7 832 15 743 87 1475 356
2095 769 442 295 879 708 1186 1122 372 502 650 1075 789 1626 91 364 130 702
130 1137 0 234 -2 272 -15 272 -8 0 -160 -59 -337 -131 -343 -139 -352 -143
-918 -379 -516 -215 -679 -280 -696 -280 -9 0 -30 11 -47 24 -87 65 -213 106
-329 106 -38 0 -68 4 -68 8 0 5 161 74 358 155 196 80 643 264 992 408 349
144 721 296 825 338 184 75 190 78 193 107 4 44 -52 366 -92 529 -31 123 -107
381 -151 512 l-15 45 101 105 c149 155 205 254 224 395 14 108 -34 246 -116
333 -152 161 -405 175 -590 33 l-46 -35 -116 166 c-183 261 -407 519 -646 745
-563 530 -1248 917 -2001 1130 -450 127 -963 185 -1420 159z m292 -645 l22
-68 143 0 c79 0 143 -4 143 -9 0 -5 -46 -46 -102 -92 -57 -45 -107 -86 -111
-89 -5 -4 8 -67 28 -139 20 -72 35 -136 33 -142 -2 -6 -57 28 -122 76 -66 47
-122 83 -125 78 -16 -23 -225 -165 -228 -155 -2 4 15 69 36 144 l38 138 -99
77 c-132 102 -128 99 -128 107 0 3 65 6 144 6 128 0 145 2 151 18 4 9 25 69
46 132 22 63 42 122 45 130 6 15 41 -74 86 -212z m-1489 -254 l44 -129 137 -3
c76 -1 136 -6 134 -11 -4 -11 -87 -82 -154 -132 l-52 -40 24 -87 c32 -113 47
-182 42 -188 -3 -2 -55 32 -117 77 l-112 81 -105 -77 c-121 -87 -139 -97 -131
-69 4 10 18 62 32 114 15 52 30 107 35 121 7 24 3 30 -43 65 -29 21 -79 61
-111 89 l-60 50 144 5 144 5 45 137 c25 76 49 134 53 130 5 -5 28 -66 51 -138z
m2928 2 l44 -135 139 -1 139 0 -24 -26 c-13 -14 -61 -56 -106 -92 -46 -36 -83
-67 -83 -69 0 -2 16 -62 35 -135 19 -72 33 -134 30 -136 -2 -2 -50 29 -106 70
-57 40 -108 76 -115 81 -7 4 -56 -24 -124 -73 -101 -72 -139 -94 -127 -72 9
15 80 273 76 275 -2 2 -51 41 -109 88 l-105 84 140 3 141 3 38 117 c52 156 55
164 64 158 4 -3 28 -66 53 -140z m-3907 -621 c4 -14 16 -50 27 -80 l20 -55 84
0 c46 0 86 -4 89 -8 5 -9 -55 -63 -107 -97 -19 -12 -26 -23 -22 -34 15 -36 45
-154 41 -158 -2 -3 -36 19 -74 47 -39 29 -73 52 -77 52 -4 0 -38 -23 -77 -52
-38 -28 -72 -50 -74 -47 -5 4 2 31 42 159 4 12 -15 31 -68 70 -72 53 -72 53
-43 59 17 4 59 7 95 8 l65 1 29 85 c29 86 39 95 50 50z m4862 -50 l28 -85 51
-1 c27 0 68 -3 89 -7 l40 -7 -67 -53 c-37 -30 -67 -56 -67 -60 0 -3 9 -39 21
-79 11 -41 19 -78 17 -84 -2 -5 -36 16 -76 47 l-74 56 -26 -25 c-34 -31 -112
-87 -122 -87 -7 0 23 105 45 161 5 14 -14 32 -124 116 -14 10 20 19 91 23 l81
5 14 40 c23 69 45 125 48 125 2 0 16 -38 31 -85z m-1981 -309 c188 -30 263
-46 405 -87 355 -101 716 -276 1095 -529 72 -48 135 -93 142 -101 8 -11 -22
-88 -143 -354 -85 -187 -163 -359 -174 -383 l-21 -44 -84 80 c-341 323 -769
552 -1186 636 -186 38 -275 46 -481 46 -337 0 -603 -62 -900 -211 -324 -162
-597 -417 -770 -719 -67 -117 -128 -249 -128 -276 0 -2 743 -4 1650 -4 1045 0
1650 -4 1650 -10 0 -8 -209 -518 -245 -597 l-15 -33 -1606 0 -1607 0 5 -238
c2 -131 8 -244 12 -250 5 -9 365 -12 1537 -12 986 0 1529 -3 1529 -10 0 -5
-13 -38 -29 -72 -15 -35 -52 -118 -81 -185 l-52 -123 -44 0 c-132 0 -265 -60
-373 -169 -42 -41 -79 -76 -83 -77 -5 -1 -508 -2 -1119 -3 l-1110 -1 7 -22
c14 -47 121 -218 199 -323 88 -116 230 -263 330 -341 292 -228 667 -377 1043
-415 156 -16 489 -6 634 20 165 29 345 76 452 118 93 36 283 128 300 144 17
16 22 10 52 -63 64 -160 231 -268 414 -268 149 1 253 44 370 156 l77 74 7 -31
c3 -17 6 -51 6 -75 0 -40 -4 -46 -59 -95 -54 -47 -113 -92 -306 -230 -175
-126 -468 -280 -680 -358 -544 -200 -1192 -234 -1755 -91 -359 90 -749 285
-1045 520 -115 92 -315 289 -406 403 -191 237 -346 509 -444 782 l-33 90 -381
3 c-300 2 -381 5 -381 15 0 12 154 389 223 547 l33 75 180 3 179 2 0 250 0
250 -302 0 c-248 0 -303 2 -303 14 0 12 229 567 251 608 9 16 32 18 245 20
l235 3 50 150 c61 185 189 447 296 610 325 493 789 857 1353 1062 131 48 342
98 512 122 198 28 213 29 478 26 193 -3 263 -8 395 -29z m3923 -423 c26 -16
60 -48 77 -72 27 -39 30 -50 30 -124 0 -73 -4 -87 -28 -125 -27 -42 -278 -337
-622 -732 -199 -228 -657 -768 -942 -1110 l-213 -255 -153 -66 c-83 -36 -153
-65 -155 -64 -1 1 14 36 33 78 24 49 46 120 63 205 l27 129 285 388 c625 849
983 1330 1163 1565 134 173 211 224 330 216 43 -3 72 -12 105 -33z m-7353
-158 l28 -75 78 0 c44 0 79 -4 79 -8 0 -6 -75 -68 -111 -92 -5 -3 1 -41 12
-83 12 -43 19 -80 16 -84 -4 -3 -34 17 -69 44 l-63 49 -70 -48 c-38 -27 -71
-44 -73 -39 -2 5 8 42 22 83 13 40 23 73 23 74 -45 26 -127 87 -127 94 0 5 37
10 82 12 l81 3 12 35 c19 55 44 110 48 110 3 0 17 -34 32 -75z m5966 2 l25
-72 77 -3 c42 -2 77 -7 77 -12 0 -5 -24 -28 -54 -52 -30 -24 -55 -49 -55 -56
-1 -7 8 -44 18 -82 11 -39 17 -70 13 -70 -4 0 -36 22 -72 49 l-64 49 -31 -27
c-36 -31 -104 -75 -110 -70 -2 2 8 38 21 79 13 41 24 77 24 80 0 3 -17 16 -37
30 -20 14 -51 36 -67 50 l-30 25 89 5 88 5 25 73 c13 39 27 72 30 72 4 0 18
-33 33 -73z m-6501 -811 l21 -63 81 -8 81 -7 -44 -38 c-24 -22 -52 -42 -61
-45 -23 -8 -22 -19 1 -105 11 -39 17 -70 14 -70 -3 0 -34 20 -69 45 l-63 45
-62 -45 c-34 -25 -65 -45 -69 -45 -10 0 27 118 43 138 7 9 7 16 1 20 -5 4 -36
27 -69 52 l-59 45 45 7 c24 3 63 7 87 7 24 1 42 6 42 12 0 24 43 128 50 124 5
-3 18 -34 30 -69z m6491 -175 c-6 -10 -49 -72 -97 -137 -48 -65 -163 -223
-255 -350 -93 -127 -175 -237 -183 -244 -13 -10 -18 -9 -31 4 -21 21 -58 20
-77 -1 -9 -11 -18 -47 -21 -88 -8 -95 -61 -358 -87 -427 -26 -69 -102 -179
-164 -236 -86 -79 -217 -120 -299 -93 -20 7 -50 28 -68 48 -29 34 -31 40 -26
92 5 55 128 523 165 631 52 150 113 217 322 355 85 56 220 140 300 186 161 92
511 279 523 279 4 0 3 -8 -2 -19z m962 -419 c278 -192 297 -206 297 -212 0 -6
-73 -37 -355 -150 -99 -40 -279 -113 -400 -163 -320 -131 -388 -157 -391 -154
-2 1 106 134 239 294 133 160 282 338 330 397 48 58 93 106 98 106 6 0 88 -53
182 -118z m-7778 -614 l47 -138 135 0 c79 0 133 -4 131 -9 -1 -5 -49 -46 -105
-91 -57 -44 -103 -86 -103 -93 0 -7 15 -66 34 -132 19 -66 30 -121 25 -123 -8
-3 -120 75 -200 139 l-25 20 -115 -85 c-63 -47 -115 -81 -117 -76 -2 4 13 68
33 140 20 72 35 133 33 135 -1 2 -48 38 -103 80 -55 42 -101 80 -103 85 -2 5
58 11 134 12 l138 3 50 143 c27 78 53 139 56 135 4 -5 28 -70 55 -145z m8291
-435 c-7 -175 -27 -357 -62 -583 -63 -411 -155 -720 -324 -1093 -120 -263
-347 -643 -538 -895 -81 -108 -86 -113 -102 -95 -9 10 -68 77 -131 148 -62 72
-165 189 -229 260 -63 72 -230 261 -371 420 -792 899 -764 861 -764 1025 0
113 18 172 73 244 51 67 97 102 167 127 82 30 198 29 280 -1 54 -20 76 -39
225 -189 91 -92 289 -301 440 -464 169 -182 285 -300 303 -306 39 -14 65 -2
161 73 178 139 218 186 218 255 0 74 -73 93 -144 36 -137 -109 -201 -155 -210
-149 -19 12 -38 73 -38 122 0 150 107 342 248 446 27 19 116 69 198 110 165
83 248 150 292 238 29 58 28 93 -3 123 -40 41 -69 33 -144 -41 -51 -51 -89
-76 -167 -115 -100 -48 -124 -56 -124 -41 0 4 7 51 16 104 l17 97 151 62 c329
134 561 229 565 229 2 0 1 -66 -3 -147z m-2550 -387 c-88 -89 -149 -201 -169
-311 l-13 -70 -49 -24 c-50 -24 -233 -101 -241 -101 -2 0 -4 7 -4 16 0 9 -25
79 -55 156 -30 77 -55 141 -55 142 0 2 100 43 223 91 122 48 269 107 327 131
58 24 106 43 108 43 1 1 -31 -32 -72 -73z m-848 -273 c30 -10 57 -24 59 -33 3
-8 19 -45 35 -82 l30 -67 -31 -40 c-17 -22 -83 -89 -146 -149 -130 -124 -230
-183 -347 -204 -38 -7 -68 -16 -68 -20 0 -17 119 -41 200 -40 155 1 256 47
391 179 76 74 77 74 83 47 18 -70 -130 -252 -254 -312 -101 -49 -178 -64 -320
-64 -124 0 -217 14 -328 48 -65 21 -197 86 -197 98 0 4 28 18 62 31 147 53
255 157 334 323 28 59 68 130 89 158 91 121 260 173 408 127z m-4564 -359 l23
-69 71 -6 c39 -3 74 -8 77 -11 3 -2 -21 -26 -54 -52 l-59 -48 20 -70 c11 -38
17 -72 14 -75 -3 -3 -32 15 -65 41 l-61 46 -67 -49 c-37 -28 -69 -48 -71 -46
-2 1 9 38 23 80 14 43 22 81 18 85 -4 4 -31 25 -60 47 -29 23 -49 43 -46 47 4
3 39 6 79 6 l73 0 11 39 c14 52 40 114 46 109 2 -3 15 -36 28 -74z m5277 -21
c25 -51 160 -235 216 -294 l34 -36 -51 -75 c-91 -137 -173 -188 -300 -188
-152 0 -250 84 -250 216 0 17 23 77 51 135 29 57 59 128 68 157 l16 54 90 38
c50 22 93 39 97 40 3 0 17 -21 29 -47z m-4670 -863 c24 0 39 -55 39 -149 l0
-74 -22 21 c-39 36 -74 44 -116 27 -20 -9 -43 -23 -49 -32 -11 -14 -13 -1 -13
73 0 98 5 110 60 148 34 23 35 23 59 5 13 -11 32 -19 42 -19z m5336 -746 l28
-79 83 -3 c45 -2 82 -7 82 -12 0 -4 -29 -30 -65 -56 -36 -27 -63 -54 -61 -60
17 -44 45 -148 42 -152 -3 -2 -37 19 -77 48 l-71 52 -27 -24 c-44 -41 -116
-89 -119 -80 -1 4 9 41 23 82 14 40 25 77 25 80 0 4 -29 28 -65 55 -36 26 -65
51 -65 56 0 5 39 9 88 9 l87 0 29 85 c16 47 30 84 32 82 2 -2 16 -39 31 -83z
m-4846 -1 l25 -78 90 -5 89 -5 -67 -54 c-74 -59 -72 -51 -42 -151 25 -83 21
-85 -58 -27 l-72 53 -78 -54 c-43 -29 -78 -49 -78 -44 0 4 11 42 25 82 14 40
25 77 25 81 0 3 -29 28 -65 54 -36 27 -65 52 -65 57 0 4 39 8 88 8 l87 0 29
80 c15 44 31 80 35 80 4 0 18 -35 32 -77z m3884 -385 c26 -79 50 -147 55 -151
4 -5 68 -12 141 -15 l133 -7 -107 -85 c-59 -47 -107 -89 -107 -95 0 -5 16 -68
35 -139 19 -72 33 -132 30 -134 -2 -3 -54 32 -115 77 -61 44 -113 81 -117 81
-3 0 -35 -22 -72 -48 -99 -73 -162 -114 -166 -110 -4 4 56 226 69 258 4 11
-10 28 -46 55 -91 68 -163 127 -166 136 -2 5 23 9 55 9 32 0 95 3 140 7 l82 6
47 141 c48 144 52 156 59 156 2 0 25 -64 50 -142z m-2914 -16 c53 -159 38
-149 213 -151 l109 -1 -24 -26 c-13 -15 -61 -56 -107 -92 -57 -44 -82 -70 -79
-81 41 -139 69 -252 65 -257 -4 -3 -56 31 -116 76 -61 45 -113 82 -117 82 -3
0 -58 -37 -121 -82 -63 -46 -117 -81 -119 -79 -2 3 14 65 35 139 21 74 37 137
34 141 -2 4 -52 45 -111 91 l-106 83 134 8 c74 4 139 9 145 12 6 2 14 15 18
29 15 61 89 256 95 251 3 -4 27 -68 52 -143z m1457 -218 l48 -139 148 -5 147
-5 -33 -31 c-18 -16 -67 -56 -108 -89 -41 -32 -78 -61 -82 -64 -4 -4 11 -69
33 -145 22 -77 38 -144 36 -149 -1 -4 -54 31 -117 78 -63 48 -119 89 -125 91
-5 2 -64 -37 -130 -85 -66 -49 -121 -88 -123 -87 -1 2 13 57 31 122 19 65 37
131 41 146 6 25 -2 33 -97 107 -154 119 -155 111 20 111 l149 0 44 128 c45
134 59 166 66 160 2 -3 26 -67 52 -144z"/>
<path d="M7509 4172 c-51 -33 -114 -100 -124 -132 -10 -31 2 -84 23 -103 26
-23 67 -30 94 -16 39 21 139 112 154 141 22 42 18 85 -11 113 -33 34 -79 33
-136 -3z"/>
</g>
</svg>
