<?xml version="1.0" standalone="no"?>
<!DOCTYPE svg PUBLIC "-//W3C//DTD SVG 20010904//EN"
 "http://www.w3.org/TR/2001/REC-SVG-20010904/DTD/svg10.dtd">
<svg version="1.0" xmlns="http://www.w3.org/2000/svg"
 width="1024.000000pt" height="1024.000000pt" viewBox="0 0 1024.000000 1024.000000"
 preserveAspectRatio="xMidYMid meet">

<g transform="translate(0.000000,1024.000000) scale(0.100000,-0.100000)"
fill="#000000" stroke="none">
<path d="M4584 9104 c-30 -29 -27 -67 8 -96 28 -25 55 -22 83 7 38 37 33 80
-12 104 -33 17 -51 14 -79 -15z"/>
<path d="M5468 9080 c-137 -21 -308 -122 -396 -232 -73 -93 -142 -237 -142
-300 0 -16 10 -18 70 -18 53 0 70 3 70 14 0 7 18 50 40 94 82 163 215 229 344
171 l26 -12 -36 -13 c-119 -41 -224 -172 -224 -279 0 -32 -1 -33 -47 -37 -27
-2 -138 -6 -248 -7 -110 -2 -216 -4 -235 -6 -19 -1 -136 -6 -260 -10 -124 -4
-228 -9 -232 -11 -4 -3 -12 15 -18 38 -64 255 -205 429 -415 513 -102 40 -252
47 -356 15 -120 -36 -187 -76 -270 -159 -82 -82 -140 -175 -170 -273 -31 -98
-31 -98 54 -98 l74 0 13 43 c44 148 141 247 242 247 26 0 66 -7 89 -16 l40
-17 -53 -29 c-29 -16 -66 -41 -81 -56 -40 -38 -79 -117 -86 -177 -5 -40 -10
-50 -26 -52 -51 -4 -237 -12 -405 -18 -400 -12 -463 -16 -514 -36 -71 -26
-121 -65 -155 -118 -59 -92 -59 -99 -65 -718 -4 -312 -8 -782 -11 -1043 -3
-261 -7 -934 -11 -1495 -3 -561 -7 -1045 -9 -1075 -2 -30 -5 -157 -5 -282 -1
-126 -5 -228 -9 -228 -11 0 -67 73 -63 83 1 4 -3 7 -9 7 -6 0 -8 7 -5 16 3 8
2 12 -3 9 -10 -6 -41 32 -41 50 0 5 5 3 10 -5 5 -8 10 -10 10 -5 0 6 -7 21
-16 33 -12 18 -13 26 -4 37 8 10 9 15 2 15 -6 0 -9 9 -7 20 2 11 0 20 -5 20
-6 0 -6 9 -1 23 5 12 14 21 20 20 6 -2 8 4 4 13 -5 13 -7 13 -14 2 -9 -14 -9
-14 -13 20 -2 13 1 25 6 28 4 3 8 10 8 15 0 6 -4 7 -10 4 -6 -3 -7 1 -4 9 3 9
11 13 18 9 7 -4 6 -1 -2 9 -7 8 -9 24 -5 33 5 14 3 16 -7 10 -9 -6 -11 -4 -5
5 5 8 9 28 8 44 0 17 5 34 10 38 7 4 7 11 -1 21 -7 7 -10 16 -7 19 3 3 7 50 9
104 3 54 8 180 12 278 6 156 5 179 -8 174 -59 -23 -319 -227 -393 -310 -102
-114 -108 -134 -214 -798 -28 -173 -64 -403 -82 -510 -39 -245 -39 -251 -28
-334 14 -106 57 -184 152 -280 77 -77 205 -192 309 -280 26 -22 45 -43 42 -48
-3 -4 4 -8 14 -8 19 0 54 -30 36 -30 -5 0 6 -8 23 -16 18 -9 33 -23 33 -32 0
-8 3 -12 7 -8 4 3 13 -4 20 -16 7 -13 12 -17 13 -10 0 18 50 -16 50 -35 0 -10
6 -13 16 -9 12 5 15 2 10 -11 -4 -10 -4 -14 0 -10 11 11 33 -13 27 -29 -3 -8
0 -14 6 -14 6 0 11 10 11 23 1 19 4 17 20 -13 12 -22 19 -28 20 -18 0 16 2 16
20 -2 12 -12 19 -24 16 -28 -3 -5 -1 -14 5 -22 6 -10 9 -11 9 -2 0 6 5 12 11
12 5 0 8 -4 4 -9 -3 -5 -1 -12 5 -16 5 -3 10 2 10 11 0 14 3 13 20 -6 24 -27
25 -34 5 -27 -8 4 -17 1 -21 -5 -5 -8 4 -9 29 -5 30 5 37 3 37 -10 0 -9 3 -13
6 -10 13 12 43 -13 37 -30 -4 -10 -2 -14 5 -9 6 3 14 1 18 -5 4 -8 9 -7 15 2
7 11 11 10 23 -6 9 -11 16 -27 16 -35 0 -13 1 -13 10 0 8 13 11 12 25 -5 9
-11 14 -14 10 -7 -9 18 63 -27 79 -50 8 -11 19 -17 25 -14 6 4 22 -7 37 -24
19 -21 33 -28 46 -24 14 4 21 0 25 -16 4 -17 11 -20 29 -16 13 4 24 2 24 -3 0
-5 10 -12 23 -16 19 -6 19 -8 5 -12 -10 -2 -18 -8 -18 -13 0 -5 14 -4 32 1 24
7 29 6 20 -3 -16 -16 -15 -31 1 -21 25 15 46 12 62 -9 8 -13 15 -18 15 -12 0
12 141 -52 151 -68 3 -5 8 -9 10 -9 13 2 49 -13 49 -20 0 -5 7 -6 15 -3 8 4
15 1 15 -6 0 -6 4 -9 8 -6 5 3 23 -4 40 -15 18 -10 37 -19 43 -19 6 0 50 -17
98 -39 47 -21 147 -59 221 -85 74 -26 142 -49 150 -53 23 -9 22 -9 225 -63
105 -27 206 -52 225 -55 19 -2 57 -10 84 -17 44 -11 50 -10 63 8 15 19 15 18
9 -2 -5 -17 -2 -23 18 -26 14 -3 30 0 37 6 9 8 10 8 6 0 -9 -16 46 -26 55 -11
6 9 8 9 8 0 0 -7 5 -13 11 -13 5 0 7 6 3 12 -5 9 -2 9 9 -1 9 -7 17 -10 17 -5
0 4 5 3 11 -3 16 -16 39 -5 39 18 0 21 -15 25 -26 7 -5 -7 -3 -8 6 -3 9 5 11
4 6 -4 -9 -14 -26 -5 -26 15 0 8 -5 12 -10 9 -6 -4 -7 -11 -4 -17 5 -7 2 -8
-5 -4 -7 5 -10 14 -7 22 3 8 1 14 -5 14 -17 0 -41 29 -34 42 4 7 1 6 -7 -2
-18 -20 -39 -24 -50 -8 -6 9 -8 2 -6 -19 3 -18 1 -30 -4 -27 -4 3 -8 17 -8 32
0 15 -3 22 -8 16 -4 -7 -18 -11 -32 -10 -15 0 -24 -4 -22 -11 1 -7 -2 -13 -8
-13 -14 0 -13 7 7 38 17 26 17 26 0 13 -15 -12 -17 -11 -17 2 0 10 -6 14 -15
11 -8 -4 -15 -1 -15 6 0 9 -8 7 -25 -4 -28 -18 -35 -10 -8 9 9 7 12 14 6 18
-5 4 -19 -3 -31 -13 -25 -24 -33 -25 -26 -6 3 8 -5 25 -17 37 -17 17 -21 18
-16 5 4 -10 3 -15 -3 -11 -5 3 -18 -3 -30 -15 -22 -22 -38 -28 -23 -7 7 8 6
22 -3 42 -7 17 -13 24 -14 17 0 -7 -5 -10 -10 -7 -6 4 -7 12 -4 18 5 9 4 9 -6
0 -7 -6 -12 -23 -12 -36 -1 -20 -4 -23 -21 -19 -18 5 -19 6 -3 17 19 14 12 45
-11 45 -8 0 -24 -10 -34 -22 l-20 -23 17 29 c16 25 16 30 3 40 -9 6 -14 18
-11 26 3 11 1 12 -7 4 -14 -13 -3 -46 13 -37 6 3 5 0 -3 -8 -10 -10 -15 -11
-18 -2 -2 7 -11 9 -19 6 -16 -6 -19 12 -4 22 6 3 10 12 10 18 0 9 -2 9 -8 1
-9 -15 -72 -5 -79 12 -2 7 -11 10 -19 7 -15 -6 -11 6 56 152 42 91 98 244 119
323 10 34 21 66 27 71 5 4 59 29 119 53 61 25 227 94 370 153 143 59 289 120
325 136 135 62 220 154 255 272 29 100 36 97 -160 70 -93 -12 -190 -25 -215
-27 -25 -3 -79 -9 -120 -15 -41 -6 -94 -13 -117 -16 -170 -20 -225 -25 -233
-20 -5 3 -12 0 -16 -6 -4 -8 -9 -7 -15 2 -6 10 -9 11 -9 2 0 -7 -5 -13 -11
-13 -6 0 -9 7 -5 15 3 8 1 15 -3 15 -5 0 -12 -7 -15 -16 -3 -8 -10 -13 -15 -9
-5 3 -13 0 -17 -6 -4 -8 -9 -7 -15 2 -7 11 -11 11 -17 2 -8 -12 -36 -12 -48 0
-11 11 -26 8 -19 -3 3 -5 2 -10 -4 -10 -5 0 -12 19 -16 43 -3 23 -8 49 -11 58
-3 13 12 18 83 29 49 8 90 14 93 15 3 1 34 5 70 9 36 4 76 9 90 11 14 2 43 6
65 9 22 3 56 7 75 10 127 18 191 27 235 31 28 3 68 8 90 12 22 3 47 7 55 8 8
1 38 5 65 8 159 22 597 79 635 83 25 3 77 9 115 15 76 10 85 11 220 28 123 15
170 21 239 26 32 3 63 8 69 12 6 4 8 -2 5 -15 -3 -12 -3 -21 1 -20 21 2 41 -3
41 -13 0 -5 -6 -7 -12 -3 -7 4 -10 3 -5 -1 4 -5 0 -20 -10 -34 -16 -25 -16
-25 1 -12 15 13 19 13 27 0 8 -11 9 -9 4 7 -6 24 3 54 17 54 5 0 6 -9 3 -20
-4 -13 -2 -20 6 -20 7 0 9 3 6 7 -4 3 -2 12 4 19 8 10 8 15 -3 19 -8 3 -19 5
-24 4 -25 -4 -44 3 -44 16 0 19 50 20 69 3 10 -11 11 -10 6 5 -5 12 -2 17 11
18 11 0 30 2 43 5 18 3 22 1 17 -12 -3 -8 -6 -20 -6 -26 0 -6 -6 -5 -15 2 -21
17 -39 -1 -30 -29 6 -19 8 -20 31 -5 16 11 24 12 24 5 0 -7 5 -9 11 -5 7 4 10
1 7 -6 -2 -8 -10 -16 -18 -18 -7 -3 -10 0 -6 7 4 6 1 11 -8 11 -9 0 -16 -4
-16 -8 0 -4 -14 -12 -32 -17 -17 -6 -33 -15 -35 -21 -5 -16 36 -12 46 5 7 10
10 10 16 1 6 -9 10 -9 16 1 7 11 11 11 17 2 5 -8 13 -9 22 -3 8 5 25 7 37 3
14 -3 23 -1 23 7 0 6 -5 8 -11 4 -8 -5 -8 -1 0 14 6 12 16 24 21 27 16 10 12
25 -5 19 -8 -4 -15 -1 -15 6 0 6 5 8 10 5 6 -3 10 -2 10 3 0 15 -32 24 -44 12
-8 -8 -7 -10 4 -7 8 2 12 2 7 0 -4 -3 -5 -9 -1 -14 3 -5 0 -9 -5 -9 -6 0 -11
5 -11 10 0 6 -4 10 -10 10 -5 0 -10 -7 -10 -16 0 -8 -4 -13 -9 -10 -4 3 -6 18
-3 33 3 16 7 22 9 16 3 -7 9 -13 14 -13 6 0 7 5 3 11 -5 8 1 10 20 7 14 -3 29
-1 32 3 9 15 41 10 41 -5 0 -8 -5 -14 -10 -13 -5 1 -10 -11 -11 -26 -1 -16 -8
-32 -16 -37 -11 -7 -12 -11 0 -24 7 -9 20 -14 29 -11 9 2 34 7 56 10 88 11
131 17 146 21 11 3 19 -7 28 -38 19 -63 86 -187 127 -233 25 -28 32 -33 24
-15 -10 20 -10 23 0 13 7 -6 19 -9 26 -6 10 4 12 0 8 -11 -4 -11 -1 -16 10
-16 9 0 16 6 16 14 0 8 9 24 20 37 l20 24 -15 -30 c-20 -39 -19 -58 1 -22 12
23 18 26 30 16 8 -6 14 -18 14 -25 0 -9 6 -11 17 -7 16 6 16 5 -1 -22 l-19
-30 21 19 c12 11 22 23 22 27 0 4 -25 41 -55 81 -62 82 -142 232 -173 325 -39
114 -50 180 -102 603 -30 243 -29 239 -51 318 -36 134 -94 229 -238 387 -171
188 -288 320 -330 372 -127 159 -152 342 -70 505 112 222 419 293 636 148 37
-24 235 -216 504 -488 245 -247 453 -453 464 -459 29 -14 133 -35 144 -29 5 4
11 1 13 -6 3 -7 18 -13 34 -13 20 -1 30 -7 32 -21 3 -16 1 -17 -7 -4 -6 8 -11
11 -11 5 1 -5 8 -19 17 -30 11 -15 14 -15 10 -3 -3 9 3 24 14 34 20 18 20 18
10 -9 -6 -14 -7 -29 -2 -31 12 -8 21 4 21 26 0 11 5 16 10 13 6 -3 10 -21 9
-38 0 -25 -2 -28 -8 -13 -5 14 -10 16 -15 8 -4 -7 -5 -16 -2 -21 3 -5 -5 -20
-19 -32 -13 -13 -25 -30 -25 -36 0 -20 -40 -16 -40 5 -1 16 -1 16 -11 0 -7
-13 -19 -16 -52 -13 -70 8 -91 12 -121 29 -16 8 -33 13 -38 10 -4 -3 -8 0 -8
5 0 6 -7 11 -15 11 -8 0 -15 5 -15 11 0 5 -4 7 -10 4 -5 -3 -10 1 -10 9 0 9
-5 16 -11 16 -6 0 -24 14 -39 30 -15 17 -33 30 -39 30 -7 0 -15 8 -18 17 -8
21 -40 53 -53 53 -9 0 -13 11 -12 30 0 3 -6 11 -14 18 -8 7 -14 11 -14 8 0 -3
-11 5 -25 18 -14 13 -25 26 -25 29 0 9 -103 107 -112 107 -5 0 -8 5 -8 12 0 6
-27 37 -60 69 -33 31 -60 62 -60 68 0 7 -3 10 -7 8 -10 -5 -222 210 -215 218
3 3 -1 5 -9 5 -7 0 -59 47 -114 104 -121 126 -179 158 -285 158 -59 0 -160
-28 -160 -44 0 -4 -7 -8 -16 -8 -8 0 -13 -4 -9 -9 3 -5 -4 -12 -15 -16 -11 -3
-20 -11 -20 -17 0 -6 -8 -17 -17 -24 -10 -7 -18 -16 -18 -21 -2 -27 -17 -83
-23 -83 -4 0 -7 -24 -7 -54 0 -30 3 -52 6 -50 4 2 12 -18 19 -43 6 -26 16 -50
21 -54 6 -3 11 -12 12 -20 2 -8 14 -26 27 -40 40 -40 115 -129 118 -140 2 -5
9 -9 15 -9 11 0 41 -37 42 -52 0 -4 26 -32 57 -62 31 -31 54 -56 50 -56 -3 0
4 -7 16 -16 14 -9 21 -22 18 -31 -3 -8 -1 -11 4 -8 8 5 50 -28 50 -40 0 -2 20
-25 45 -51 25 -25 45 -50 45 -56 0 -5 9 -17 19 -26 17 -15 35 -42 69 -108 16
-31 29 -66 42 -114 13 -47 15 -57 25 -129 3 -25 8 -48 11 -53 3 -4 7 -33 10
-65 6 -61 7 -66 17 -123 8 -45 18 -142 22 -200 1 -25 5 -58 9 -75 3 -16 8 -50
11 -75 5 -44 14 -105 21 -145 8 -44 58 -185 65 -185 5 0 6 -6 3 -14 -3 -7 2
-21 11 -30 9 -9 13 -22 9 -28 -4 -7 -3 -9 1 -5 10 9 47 -61 39 -74 -3 -5 0 -9
5 -9 6 0 11 -8 11 -17 0 -9 3 -13 6 -10 9 9 45 -39 47 -62 0 -11 4 -18 8 -15
4 2 22 -15 40 -38 73 -95 179 -183 301 -251 55 -31 206 -85 257 -93 59 -10 49
-14 -30 -14 -41 1 -113 9 -161 19 -64 13 -90 15 -98 7 -7 -6 -11 -7 -10 -1 5
22 -1 27 -15 15 -12 -10 -15 -10 -15 3 0 16 -26 30 -41 21 -5 -3 -9 0 -9 7 0
7 -3 9 -6 6 -10 -10 18 -39 32 -33 7 3 15 -2 18 -10 3 -9 10 -12 16 -9 5 3 10
-3 10 -14 0 -11 5 -23 12 -27 6 -4 8 -3 4 4 -3 6 -2 13 3 16 18 12 21 -30 20
-331 0 -275 -2 -308 -17 -319 -12 -9 -21 -9 -29 -2 -12 10 -18 0 -14 -25 0 -4
-3 -7 -9 -7 -5 0 -7 -7 -4 -15 7 -18 -7 -20 -24 -3 -9 9 -12 9 -12 -1 0 -7 -5
-9 -11 -5 -8 5 -8 1 0 -13 6 -11 7 -23 4 -27 -3 -3 -1 -6 6 -6 9 0 11 8 8 21
-3 13 -1 19 6 16 7 -3 11 -11 9 -18 -1 -8 4 -7 12 5 8 10 19 15 24 12 20 -12
336 162 572 315 324 209 543 378 830 637 189 171 265 257 307 348 l28 59 3
678 c3 643 4 677 21 677 9 0 87 -16 172 -35 85 -19 181 -36 214 -36 122 -1
231 66 286 176 20 43 24 63 23 140 -1 97 -12 132 -62 200 -51 70 -117 97 -377
150 -126 25 -268 55 -315 66 l-85 20 -40 71 c-78 138 -208 252 -363 318 -39
16 -74 30 -78 30 -12 0 28 -53 130 -174 137 -162 167 -198 163 -203 -2 -2 -44
6 -93 18 -88 21 -128 43 -139 80 -4 10 -9 18 -13 16 -4 -1 -8 1 -9 6 -2 4 -13
18 -25 31 -32 33 -58 65 -58 72 0 3 -14 19 -30 34 -16 15 -30 32 -30 38 0 5
-7 13 -16 16 -9 4 -14 9 -11 12 3 3 -4 16 -16 28 -34 32 -87 104 -87 115 0 6
-7 11 -15 11 -8 0 -15 7 -15 15 0 9 -6 18 -14 21 -9 3 -12 13 -9 22 4 9 3 14
-2 10 -7 -7 -64 49 -65 63 0 3 -8 15 -17 27 -10 11 -27 33 -38 48 -11 15 -26
33 -32 40 -7 7 -13 17 -13 23 0 6 -7 11 -15 11 -8 0 -15 7 -15 15 0 8 -4 15
-10 15 -5 0 -10 6 -10 14 0 7 -12 21 -26 31 -14 9 -23 19 -20 22 3 3 -11 20
-31 37 -20 17 -45 39 -55 49 -10 9 -18 15 -18 12 0 -3 -17 3 -38 14 -85 43
-209 60 -301 40 -31 -7 -59 -12 -63 -11 -5 1 -8 -2 -8 -7 0 -4 -10 -7 -22 -7
-13 1 -29 -2 -36 -7 -7 -6 -15 -7 -18 -4 -4 3 -13 0 -20 -8 -8 -8 -21 -12 -29
-9 -8 4 -15 1 -15 -6 0 -7 -7 -10 -15 -6 -8 3 -15 1 -15 -4 0 -6 -3 -9 -7 -8
-17 3 -83 -15 -83 -23 0 -5 -6 -6 -14 -3 -8 3 -17 1 -20 -5 -4 -6 -13 -8 -21
-4 -8 3 -15 0 -15 -7 0 -6 -4 -9 -9 -5 -5 3 -12 1 -16 -5 -4 -6 -11 -8 -16 -5
-5 4 -9 2 -9 -2 0 -5 -13 -8 -30 -7 -16 1 -30 -3 -30 -8 0 -6 -7 -8 -15 -4 -8
3 -15 1 -15 -5 0 -5 -6 -9 -12 -8 -20 4 -78 -12 -78 -20 0 -5 -11 -7 -25 -6
-14 2 -25 -1 -25 -6 0 -6 -4 -7 -10 -4 -5 3 -10 1 -10 -5 0 -7 -7 -10 -15 -6
-8 3 -15 1 -15 -5 0 -6 -5 -7 -10 -4 -6 4 -17 1 -25 -5 -8 -7 -15 -9 -15 -5 0
4 -7 2 -15 -5 -8 -7 -15 -10 -15 -6 0 3 -16 0 -35 -8 -20 -9 -38 -15 -40 -16
-3 0 -6 0 -7 -1 -2 0 -10 -2 -18 -4 -8 -2 -29 -8 -47 -13 -17 -6 -34 -8 -37
-4 -3 3 -6 0 -6 -5 0 -6 -8 -10 -17 -9 -10 2 -27 -3 -37 -10 -14 -10 -23 -11
-33 -2 -10 8 -13 7 -13 -5 0 -11 -5 -14 -17 -10 -12 5 -14 3 -8 -7 6 -10 4
-12 -10 -7 -9 4 -25 2 -33 -5 -12 -10 -14 -10 -8 0 4 6 2 12 -3 12 -6 0 -11
-6 -11 -14 0 -8 -6 -14 -12 -13 -33 1 -49 -4 -43 -13 3 -6 -1 -7 -10 -4 -9 4
-25 -2 -37 -12 -14 -12 -18 -14 -13 -4 6 10 1 9 -13 -3 -11 -11 -25 -16 -31
-13 -5 4 -12 -3 -16 -14 -4 -11 -11 -18 -16 -14 -14 8 -41 -17 -35 -32 3 -7 1
-16 -4 -19 -6 -4 -10 -1 -10 4 0 6 -5 11 -11 11 -6 0 -9 -7 -5 -15 3 -8 0 -14
-7 -12 -6 1 -14 -14 -17 -33 -6 -43 -16 -24 -26 50 -19 144 72 239 286 298 19
6 154 46 300 90 146 44 330 99 410 122 80 23 179 52 220 65 109 35 187 53 254
59 69 6 195 -9 245 -30 31 -13 32 -13 20 3 -28 33 -135 94 -202 115 -100 30
-191 21 -391 -37 -87 -25 -160 -44 -163 -41 -7 6 -53 332 -128 901 -36 275
-72 547 -80 605 -8 58 -33 247 -55 420 -21 173 -44 351 -50 395 -28 228 -84
293 -257 303 l-82 4 -7 32 c-24 117 -109 273 -197 364 -147 153 -343 222 -539
192z m259 -158 c219 -84 372 -341 358 -603 -6 -131 -40 -233 -97 -300 -26 -30
-95 -69 -83 -47 3 7 -1 4 -9 -6 -12 -15 -16 -16 -16 -5 0 8 5 20 10 25 7 7 6
11 -4 11 -8 0 -13 -4 -10 -8 6 -10 -16 -24 -41 -24 -17 -1 -20 4 -17 27 2 15
9 26 16 25 6 -1 10 8 10 21 -1 12 2 22 6 22 4 0 10 10 13 23 3 12 13 49 22 82
12 41 18 94 18 170 0 93 -5 123 -27 190 -35 103 -96 206 -162 272 -60 60 -161
128 -207 139 l-32 8 40 6 c59 7 152 -5 212 -28z m-1982 -75 c199 -95 319 -307
319 -562 0 -187 -64 -338 -164 -390 -29 -15 -107 -18 -115 -4 -3 5 0 6 8 3 23
-9 31 16 11 31 -18 14 -18 14 4 15 13 0 20 4 17 10 -4 6 -12 7 -18 3 -7 -4 -6
0 2 10 7 9 16 15 20 13 4 -3 7 5 7 17 0 12 11 56 24 97 19 59 24 96 24 175 -2
253 -139 482 -351 587 -35 17 -63 33 -63 36 0 2 45 3 99 0 88 -4 108 -9 176
-41z m1900 -179 c85 -97 134 -255 121 -387 -7 -72 -59 -191 -82 -191 -8 0 -13
-3 -13 -7 3 -20 -2 -34 -11 -28 -6 3 -7 -1 -4 -9 3 -9 1 -16 -6 -16 -6 0 -9
-4 -6 -9 4 -5 2 -11 -3 -13 -14 -5 -43 -187 -36 -225 7 -37 1 -41 -23 -15 -10
10 -12 11 -7 2 8 -13 8 -13 -6 -3 -9 7 -19 10 -23 6 -4 -4 -4 0 0 10 4 10 1
17 -6 17 -7 0 -10 7 -6 16 4 11 -1 18 -14 21 -11 3 -17 9 -14 15 3 5 0 15 -6
23 -6 8 -9 19 -5 25 3 5 2 10 -3 10 -14 0 6 130 28 176 19 38 53 75 134 142
19 16 25 27 18 34 -13 13 -35 1 -26 -14 4 -7 2 -8 -4 -4 -6 4 -8 14 -5 23 4
11 3 14 -5 9 -15 -9 -15 -1 0 27 10 20 10 21 -6 8 -9 -8 -19 -11 -23 -7 -3 3
-2 6 3 6 5 0 9 18 9 39 0 28 -3 37 -11 30 -8 -6 -14 -4 -18 6 -3 8 -1 15 5 15
5 0 4 6 -3 14 -7 8 -17 11 -22 8 -5 -3 -6 0 -2 6 12 20 -42 44 -114 51 l-70 6
24 50 c12 28 35 65 51 83 27 33 119 92 142 92 6 0 28 -19 48 -42z m-2017 -73
c50 -56 81 -117 102 -200 23 -89 25 -141 9 -217 -13 -58 -44 -128 -59 -128 -8
0 -20 -26 -19 -43 0 -5 -9 -17 -21 -27 -12 -11 -19 -24 -15 -29 3 -6 3 -11 -2
-11 -10 0 -37 -59 -30 -67 3 -3 2 -16 -3 -29 -5 -13 -10 -62 -11 -109 -1 -47
-5 -85 -10 -85 -5 0 -9 7 -9 15 0 8 -4 15 -10 15 -5 0 -10 7 -10 15 0 8 -5 15
-11 15 -5 0 -7 5 -3 12 4 6 3 8 -4 4 -6 -4 -21 13 -35 42 -32 64 -31 166 2
236 25 51 91 126 128 145 13 6 28 21 34 34 11 20 11 21 -5 8 -16 -13 -18 -13
-16 0 4 26 0 50 -7 46 -5 -3 -14 1 -21 9 -7 8 -9 14 -4 14 6 0 12 10 15 21 4
17 3 19 -6 10 -17 -17 -22 -14 -24 16 0 15 -6 29 -12 31 -5 2 -7 10 -4 18 3 9
-4 24 -16 36 -19 17 -44 23 -108 27 -48 3 35 140 117 194 34 22 34 22 68 -18z
m1617 -305 c-3 -5 0 -7 9 -4 10 4 17 -2 22 -21 3 -14 4 -29 1 -32 -8 -7 -252
-19 -677 -33 -195 -6 -365 -12 -377 -14 -21 -3 -23 1 -23 35 0 24 5 39 13 40
6 0 197 9 422 18 501 22 618 24 610 11z m1015 0 c0 -5 7 -10 15 -10 12 0 61
-38 53 -41 -2 0 -27 -2 -57 -4 -50 -4 -53 -3 -47 18 3 12 6 28 6 35 0 6 7 12
15 12 8 0 15 -4 15 -10z m-2975 -71 c15 -23 12 -59 -4 -59 -9 0 -71 -5 -138
-9 -152 -12 -210 -37 -258 -115 -28 -46 -30 -57 -30 -140 0 -50 4 -118 8 -151
4 -33 16 -136 27 -230 17 -150 30 -255 45 -375 4 -33 19 -158 30 -260 3 -25 7
-61 10 -80 3 -19 7 -55 10 -80 5 -53 18 -162 40 -350 8 -74 18 -153 20 -175 3
-22 11 -96 20 -165 21 -181 75 -638 80 -685 6 -54 16 -134 30 -250 3 -27 8
-63 10 -80 2 -16 7 -61 10 -100 3 -38 8 -81 10 -95 9 -49 46 -376 50 -434 l3
-60 -26 30 c-15 17 -46 43 -69 58 -36 24 -43 34 -47 70 -3 22 -10 77 -16 121
-5 44 -21 181 -35 305 -13 124 -29 261 -35 305 -6 44 -19 163 -30 265 -17 148
-74 650 -94 820 -15 123 -104 918 -162 1450 -16 140 -13 239 8 287 40 92 108
153 201 178 63 17 322 20 332 4z m2884 -303 c-13 -71 -46 -141 -86 -178 -35
-33 -102 -70 -113 -63 -5 3 -11 1 -14 -4 -3 -5 -23 -7 -43 -5 -21 2 -48 5 -60
5 -13 1 -23 5 -23 11 0 5 -5 6 -10 3 -6 -3 -13 0 -16 9 -3 8 -12 12 -20 9 -8
-3 -14 0 -14 6 0 6 -1 14 -2 19 -1 4 -5 24 -8 45 l-7 37 73 0 c132 0 240 63
309 178 l30 50 7 -31 c4 -18 3 -59 -3 -91z m-3740 -67 c11 -79 29 -227 41
-329 11 -102 31 -286 45 -410 14 -124 32 -288 40 -365 13 -116 41 -363 60
-525 4 -33 50 -435 60 -530 3 -25 17 -151 30 -280 24 -220 81 -714 90 -770 2
-14 5 -45 7 -69 l2 -44 -79 -21 c-108 -29 -165 -60 -241 -129 l-63 -58 -1 833
c-1 458 -3 862 -5 898 -2 36 -6 452 -10 925 -4 473 -7 862 -7 865 -2 36 3 162
7 159 2 -3 13 -70 24 -150z m1731 71 c-1 -125 -83 -267 -178 -307 -37 -16
-152 -26 -152 -14 0 4 -10 7 -22 6 -38 -3 -75 23 -82 56 -15 75 -16 74 87 75
76 0 100 4 136 23 63 33 131 101 166 165 32 59 45 57 45 -4z m907 -806 c57 -8
137 -26 178 -39 77 -26 195 -81 195 -91 0 -4 -26 -45 -59 -93 -43 -64 -165
-246 -187 -279 -1 -2 -19 4 -40 12 -111 42 -289 49 -417 17 -131 -34 -229 -91
-332 -195 -108 -109 -163 -206 -201 -354 -40 -156 -31 -352 21 -507 66 -193
212 -363 387 -449 168 -83 337 -102 504 -56 106 29 182 71 264 147 123 114
192 259 215 452 l6 44 -58 -6 c-32 -3 -182 -24 -333 -47 -305 -46 -349 -45
-411 7 -103 87 -111 270 -16 371 54 57 102 76 187 77 70 0 89 -5 163 -43 4 -2
7 1 7 7 0 6 35 57 78 115 42 57 113 155 157 217 43 63 117 165 163 227 l83
113 44 -36 c51 -42 136 -145 188 -227 20 -32 41 -58 47 -58 5 0 7 -7 4 -15 -4
-8 1 -17 10 -21 9 -3 14 -10 11 -14 -8 -13 17 -60 28 -53 6 4 8 0 4 -11 -5
-14 -2 -17 15 -14 16 2 24 -3 26 -17 4 -16 2 -17 -11 -7 -10 9 -17 10 -22 2
-3 -5 -1 -10 4 -10 6 0 11 -9 11 -20 0 -11 7 -23 16 -27 8 -3 13 -12 10 -19
-3 -8 0 -14 5 -14 7 0 9 -9 6 -21 -4 -16 -3 -18 9 -8 7 6 11 16 7 22 -3 5 -1
7 4 4 16 -10 25 -85 13 -107 -6 -12 -7 -20 -1 -20 5 0 11 7 15 15 3 8 13 14
23 14 16 -1 16 -2 1 -6 -10 -2 -15 -10 -11 -19 3 -8 -1 -14 -10 -14 -9 0 -19
-4 -22 -10 -3 -6 1 -7 10 -4 11 5 18 0 22 -15 3 -11 8 -19 12 -17 4 3 13 0 21
-6 12 -8 12 -9 -2 -4 -10 3 -20 1 -24 -5 -4 -6 -11 -6 -20 2 -10 8 -14 8 -14
0 0 -6 4 -11 9 -11 5 0 8 -11 7 -25 -2 -13 1 -22 6 -19 5 3 7 13 4 21 -4 9 -1
13 6 11 9 -3 12 -24 11 -63 -1 -38 1 -54 7 -45 5 8 12 11 17 7 4 -4 2 -17 -5
-27 -16 -27 -15 -30 8 -30 11 0 20 -4 20 -10 0 -5 -5 -10 -11 -10 -6 0 -16 -6
-24 -13 -17 -17 -15 -66 3 -60 8 3 12 -4 12 -22 0 -14 -4 -24 -9 -20 -5 3 -13
0 -17 -6 -5 -9 1 -10 19 -5 20 5 25 3 23 -12 -3 -19 -45 -44 -63 -37 -6 2 -13
1 -15 -3 -2 -4 -35 -20 -75 -35 -87 -34 -159 -98 -198 -176 -35 -70 -45 -187
-22 -254 l15 -46 -26 -5 c-15 -4 -83 -13 -152 -21 -216 -25 -374 -46 -377 -49
-2 -2 54 -46 124 -98 71 -53 154 -116 186 -141 l57 -45 -47 -30 c-65 -42 -219
-99 -318 -118 -104 -20 -146 -24 -257 -24 -467 0 -888 262 -1105 686 -124 242
-171 508 -138 784 26 222 93 401 215 573 266 372 688 556 1127 491z m-1637
-102 c5 -21 10 -52 10 -70 0 -32 0 -32 48 -31 56 2 88 -7 96 -26 10 -27 -22
-45 -79 -45 l-53 0 5 -73 c5 -60 3 -75 -11 -86 -26 -22 -45 5 -58 83 l-11 67
-57 -7 c-46 -5 -60 -3 -74 11 -9 10 -15 22 -13 29 6 19 50 36 96 36 l43 0 -6
64 c-6 51 -4 66 9 79 22 23 43 11 55 -31z m2893 34 c3 -7 8 -34 12 -59 l7 -46
47 -3 c38 -3 46 -6 46 -23 0 -15 -10 -22 -42 -29 l-43 -10 0 -47 c0 -86 -46
-87 -57 -2 l-6 51 -44 0 c-53 0 -72 14 -53 37 7 9 28 15 51 15 l39 0 0 65 c0
57 2 65 19 65 10 0 21 -6 24 -14z m-213 -920 c0 -2 -9 -6 -20 -9 -11 -3 -18
-1 -14 4 5 9 34 13 34 5z m20 -176 c0 -5 -5 -10 -11 -10 -5 0 -7 5 -4 10 3 6
8 10 11 10 2 0 4 -4 4 -10z m10 -51 c0 -14 -29 -4 -33 12 -4 15 -2 16 14 6 10
-6 19 -14 19 -18z m5 -28 c3 -5 1 -12 -5 -16 -5 -3 -10 1 -10 9 0 18 6 21 15
7z m17 -73 c-7 -7 -12 -8 -12 -2 0 14 12 26 19 19 2 -3 -1 -11 -7 -17z m-11
-41 c8 -11 0 -47 -10 -47 -4 0 -15 13 -24 29 -17 29 -17 30 5 28 13 0 26 -5
29 -10z m19 -67 c0 -5 -2 -10 -4 -10 -3 0 -8 5 -11 10 -3 6 -1 10 4 10 6 0 11
-4 11 -10z m1088 -433 c-1 -18 4 -43 11 -55 7 -12 9 -27 6 -32 -3 -6 -1 -10 5
-10 6 0 8 -4 5 -10 -3 -5 -3 -10 2 -10 4 0 17 -18 27 -40 10 -22 24 -37 29
-33 6 4 8 0 4 -10 -3 -10 -2 -17 3 -17 6 0 10 -7 10 -16 0 -8 5 -12 10 -9 6 3
10 1 10 -5 0 -7 10 -20 23 -31 27 -22 18 -23 -72 -8 -78 14 -88 20 -113 77
l-20 44 -29 -41 c-34 -45 -19 -44 -174 -11 -83 18 -83 18 13 41 28 7 52 15 52
19 0 3 10 7 22 7 13 1 24 7 26 13 2 5 7 8 11 6 4 -3 25 5 46 17 35 19 43 31
60 85 21 68 35 80 33 29z m-1517 -329 c-17 -35 -32 -71 -35 -81 -5 -15 -15
-11 -78 29 -40 26 -83 55 -95 64 l-23 18 33 6 c17 3 70 9 117 12 47 4 87 8 89
10 20 18 16 -6 -8 -58z m1219 -12 c96 -19 294 -58 440 -86 146 -28 353 -69
460 -91 107 -22 314 -64 460 -94 349 -72 721 -152 726 -158 3 -2 -11 -37 -30
-76 -19 -40 -40 -103 -47 -142 -7 -38 -14 -67 -17 -65 -2 3 -11 -2 -20 -11
-14 -14 -17 -13 -30 3 -14 18 -15 18 -8 0 5 -14 3 -16 -6 -9 -22 17 -66 24
-74 11 -5 -7 -2 -9 9 -5 12 4 15 1 12 -15 -4 -20 -4 -20 15 -3 11 10 20 13 20
8 0 -17 -26 -34 -44 -27 -9 3 -13 10 -10 15 3 5 -2 9 -10 9 -9 0 -16 -4 -16
-10 0 -17 -27 -11 -34 7 -6 14 -9 15 -15 4 -5 -8 -14 -10 -21 -6 -9 6 -8 11 6
19 11 6 21 11 24 11 3 0 11 4 18 8 15 10 16 -5 0 -21 -7 -7 -9 -12 -5 -12 4 0
18 10 30 21 12 12 16 19 10 15 -7 -4 -13 -2 -13 4 0 7 -8 9 -22 4 -13 -4 -28
-7 -35 -7 -7 0 -10 -4 -7 -9 3 -4 -2 -8 -10 -8 -9 0 -16 -4 -16 -10 0 -5 -4
-10 -10 -10 -17 0 -11 21 11 39 21 17 21 17 1 17 -11 0 -20 -5 -19 -11 1 -5
-4 -9 -11 -7 -10 2 -12 -4 -7 -20 4 -16 4 -19 -3 -9 -5 7 -14 11 -20 7 -13 -8
-42 3 -42 16 0 6 7 5 15 -2 13 -11 18 -11 28 0 10 10 9 12 -5 7 -10 -3 -20 -2
-23 3 -4 6 0 10 8 10 8 0 18 7 21 16 4 11 -2 10 -24 -6 -17 -12 -30 -26 -30
-32 0 -6 -6 -6 -15 2 -8 7 -15 9 -15 4 0 -4 -5 -3 -11 3 -6 6 -18 9 -25 6 -9
-3 -14 3 -15 18 -2 24 -2 24 -6 2 -2 -13 -9 -23 -14 -23 -6 0 -7 9 -4 20 4 12
2 20 -5 20 -6 0 -9 -4 -6 -9 3 -5 -2 -12 -11 -15 -10 -4 -20 -1 -25 9 -5 8
-15 15 -23 15 -7 0 -15 3 -18 8 -2 4 -2 1 -1 -5 2 -7 -4 -13 -12 -13 -11 0
-14 5 -9 18 5 14 4 15 -6 5 -14 -14 -51 -17 -62 -6 -4 3 -2 12 3 18 8 9 6 14
-5 19 -10 4 -15 -1 -15 -14 0 -11 -4 -20 -10 -20 -5 0 -7 7 -3 16 5 14 3 14
-14 3 -11 -7 -29 -9 -39 -5 -16 6 -16 9 -4 16 8 6 10 10 5 10 -6 0 -17 -6 -24
-12 -11 -11 -13 -10 -8 4 3 10 1 20 -5 24 -6 4 -8 3 -4 -4 3 -6 2 -13 -3 -16
-15 -10 -102 6 -117 21 -11 11 -14 12 -14 1 -1 -8 -6 -6 -15 6 -8 11 -15 14
-15 8 0 -7 -4 -12 -9 -12 -12 0 -21 38 -10 44 5 2 4 3 -3 2 -7 -2 -12 -10 -10
-18 2 -14 -31 -19 -44 -6 -3 4 -13 4 -22 1 -11 -5 -13 -3 -7 8 7 12 6 12 -7 1
-10 -8 -19 -9 -22 -3 -4 5 2 15 11 21 17 10 16 10 -2 8 -11 -1 -26 1 -34 6 -9
6 -12 5 -8 -1 4 -6 -4 -13 -18 -15 -14 -3 -25 -1 -25 5 0 5 -9 7 -19 4 -12 -3
-18 0 -15 7 3 7 -10 11 -36 10 -23 0 -43 3 -46 8 -3 5 -10 6 -15 3 -5 -4 -16
1 -25 10 -13 13 -19 13 -32 3 -13 -11 -15 -10 -10 13 4 21 0 28 -22 36 -20 7
-32 7 -45 -3 -10 -8 -14 -14 -9 -14 6 0 15 5 21 11 8 8 13 8 17 0 4 -6 3 -11
-3 -11 -6 0 -8 -7 -5 -15 4 -8 1 -15 -6 -15 -6 0 -8 5 -5 10 6 10 -10 13 -50
11 l-20 -1 20 9 c19 8 19 9 1 16 -11 5 -21 3 -27 -6 -7 -12 -9 -12 -9 0 0 9
-8 12 -25 9 -15 -3 -25 -1 -25 6 0 16 -71 18 -89 3 -12 -10 -14 -9 -8 6 3 9 2
17 -3 17 -6 0 -10 9 -10 20 0 11 -4 20 -10 20 -5 0 -7 -7 -4 -15 9 -23 -11
-18 -31 8 -15 21 -23 23 -61 17 -24 -4 -41 -3 -38 1 2 4 -5 10 -16 14 -11 3
-20 11 -20 16 0 6 -4 8 -9 4 -5 -3 -16 3 -23 13 -7 11 -16 20 -20 21 -5 0 -8
4 -7 7 0 3 -15 17 -33 32 -50 41 -288 274 -288 283 0 4 8 5 18 3 9 -2 96 -19
192 -38z m-3262 -303 c5 -10 12 -35 16 -55 7 -37 8 -38 50 -38 28 0 46 -5 49
-13 9 -24 -9 -39 -46 -39 l-36 0 -3 -56 c-3 -49 -6 -57 -23 -57 -16 0 -22 10
-29 48 l-9 47 -44 0 c-39 0 -43 2 -43 25 0 21 6 26 41 31 l40 7 -6 38 c-10 58
22 103 43 62z m3512 -75 c0 -4 -4 -8 -9 -8 -6 0 -12 4 -15 8 -3 5 1 9 9 9 8 0
15 -4 15 -9z m1970 -78 c0 -6 -11 -32 -24 -59 -24 -46 -47 -125 -60 -203 -7
-40 -30 -52 -38 -20 -17 64 64 292 104 292 10 0 18 -5 18 -10z m-1580 -20 c0
-11 -2 -20 -4 -20 -2 0 -6 9 -9 20 -3 11 -1 20 4 20 5 0 9 -9 9 -20z m1730 -9
c0 -5 -6 -14 -14 -20 -19 -16 -62 -106 -75 -156 -5 -22 -12 -69 -14 -104 -3
-35 -10 -68 -17 -75 -8 -8 -10 -4 -6 19 3 17 0 38 -9 51 -21 32 -2 131 41 222
32 65 37 72 64 72 17 0 30 -4 30 -9z m-6365 -58 c73 -22 143 -65 201 -125 124
-128 140 -183 194 -663 11 -99 22 -196 25 -215 3 -19 18 -141 34 -271 33 -260
39 -281 126 -439 120 -217 169 -385 179 -615 7 -167 -28 -347 -95 -502 -51
-115 -91 -172 -119 -170 -13 1 -19 6 -15 15 3 8 0 12 -7 9 -7 -2 -12 -12 -12
-21 2 -14 -1 -15 -13 -4 -10 8 -11 14 -4 16 6 2 1 12 -11 23 -13 10 -18 18
-13 19 6 0 16 -5 23 -12 9 -9 12 -9 12 3 0 12 2 12 10 -1 8 -13 10 -12 10 4 0
11 -5 16 -13 13 -24 -9 -35 6 -25 32 8 23 9 24 24 5 14 -18 15 -18 4 4 -9 19
-14 21 -32 11 -19 -10 -20 -9 -13 7 4 11 10 27 12 37 4 11 11 16 21 12 12 -4
13 -3 2 10 -10 12 -10 15 0 15 8 0 11 3 7 6 -9 9 14 65 24 58 5 -3 6 2 3 10
-3 8 0 32 7 53 8 21 14 45 16 53 1 8 7 34 13 58 5 23 12 91 14 150 8 206 -24
371 -101 517 -117 225 -151 314 -167 445 -3 25 -14 124 -26 220 -24 215 -25
217 -50 420 -11 91 -22 185 -25 210 -19 161 -23 184 -44 240 -26 69 -88 144
-141 171 -25 12 -48 24 -52 25 -5 1 -9 2 -10 3 -2 2 -14 4 -28 6 -14 3 -34 6
-44 8 -25 5 -92 -8 -131 -24 -16 -7 -33 -12 -37 -11 -5 1 -8 -3 -8 -9 0 -5 -4
-7 -10 -4 -5 3 -10 1 -10 -6 0 -7 -3 -10 -6 -6 -3 3 -13 -2 -23 -12 -16 -16
-65 -90 -67 -101 -1 -7 -14 -42 -22 -60 -9 -20 -8 -166 3 -315 5 -66 9 -141 9
-167 1 -27 4 -48 7 -48 4 0 6 -25 5 -56 -1 -30 1 -57 5 -60 4 -2 4 -18 -1 -34
-5 -17 -5 -30 0 -30 11 0 18 -46 9 -62 -4 -7 -3 -18 3 -25 7 -9 7 -13 -1 -13
-7 0 -10 -4 -6 -9 3 -6 7 -37 9 -71 1 -33 6 -63 9 -66 4 -4 2 -16 -4 -27 -8
-14 -8 -18 0 -13 7 5 10 -2 9 -19 -2 -16 -7 -24 -16 -20 -9 3 -9 -1 3 -17 19
-28 19 -39 0 -32 -21 8 -19 -16 3 -33 9 -8 11 -11 3 -7 -11 6 -13 1 -8 -25 6
-28 5 -30 -8 -17 -8 8 -15 20 -15 27 0 10 -3 10 -12 1 -9 -9 -7 -17 7 -34 11
-13 13 -17 5 -10 -25 21 -33 13 -15 -15 l18 -28 -26 24 c-24 21 -25 22 -20 3
7 -28 -12 -36 -47 -19 -27 14 -28 14 -17 -4 6 -10 18 -20 27 -23 13 -3 13 -4
0 -5 -9 0 -30 12 -48 28 -17 17 -32 26 -32 21 0 -13 -31 -5 -40 11 -5 7 -15
14 -22 15 -43 3 -44 4 -28 14 13 8 12 10 -2 10 -10 0 -18 5 -18 11 0 5 -5 7
-12 3 -8 -5 -9 -2 -5 9 5 13 1 17 -18 17 -22 0 -23 2 -15 33 8 28 8 30 -4 15
-21 -28 -32 -22 -55 28 -17 36 -19 49 -10 60 8 10 9 18 0 27 -6 8 -7 18 -3 22
4 5 1 5 -5 1 -8 -4 -13 -2 -13 5 0 18 93 4 154 -24 30 -14 72 -41 95 -62 33
-30 41 -34 41 -19 0 11 -12 181 -26 379 -43 613 -43 674 5 776 77 162 246 270
416 267 39 0 93 -7 120 -15z m4905 -3 c0 -5 -5 -10 -11 -10 -5 0 -7 5 -4 10 3
6 8 10 11 10 2 0 4 -4 4 -10z m-428 -46 c99 -24 158 -45 158 -55 0 -5 -3 -8
-7 -7 -5 1 -19 -4 -32 -11 -19 -11 -22 -11 -15 1 4 7 -2 5 -13 -4 -11 -10 -29
-18 -41 -18 -22 0 -146 109 -125 110 6 0 40 -7 75 -16z m1515 -149 c0 -9 -6
-14 -13 -11 -8 3 -16 1 -19 -4 -4 -6 3 -10 14 -10 12 0 21 -4 21 -10 0 -12
-10 -13 -30 0 -9 5 -19 5 -27 -2 -11 -8 -12 -7 -6 8 6 17 5 17 -10 5 -10 -8
-20 -11 -23 -8 -6 6 33 30 54 33 8 1 16 5 20 8 10 11 19 6 19 -9z m133 -33 c0
-5 -7 -9 -15 -9 -8 0 -12 4 -9 9 3 4 9 8 15 8 5 0 9 -4 9 -8z m0 -32 c0 -5 -2
-10 -4 -10 -3 0 -8 5 -11 10 -3 6 -1 10 4 10 6 0 11 -4 11 -10z m-3304 -121
c32 -27 46 -177 20 -212 -19 -25 -127 -43 -165 -27 -37 15 -50 46 -57 133 -6
64 -4 74 14 90 36 33 156 43 188 16z m-427 -53 c16 -17 25 -45 33 -95 17 -112
2 -131 -114 -145 -50 -5 -60 -3 -83 17 -23 19 -29 36 -38 105 -10 78 -9 84 10
103 23 23 68 36 129 38 31 1 46 -5 63 -23z m-421 -56 c7 -11 17 -52 22 -92 10
-65 9 -75 -8 -98 -15 -20 -32 -27 -81 -33 -113 -16 -138 7 -148 132 -5 77 -5
79 21 96 15 10 48 20 74 23 26 2 49 6 50 7 9 8 59 -17 70 -35z m-473 -20 c31
-12 50 -54 59 -131 12 -100 -12 -124 -129 -128 -74 -3 -90 11 -105 89 -23 120
-11 147 76 166 76 16 69 16 99 4z m1561 -16 c-3 -8 -2 -14 3 -14 8 0 35 -46
37 -64 0 -6 2 -17 2 -24 1 -7 7 -10 14 -6 7 4 8 3 4 -5 -8 -12 20 -118 36
-138 5 -7 6 -18 2 -24 -4 -7 -3 -9 3 -6 5 4 16 -5 23 -18 7 -13 17 -22 22 -19
4 3 8 -2 8 -11 0 -8 7 -18 15 -21 8 -3 17 -14 20 -24 4 -11 12 -17 21 -13 8 3
14 -1 14 -11 0 -9 7 -16 15 -16 8 0 15 -4 15 -10 0 -17 -97 -11 -153 10 -53
20 -94 54 -116 98 -14 26 -13 309 0 318 5 3 6 10 3 16 -5 7 -2 8 5 4 7 -5 10
-14 7 -22z m-1991 -40 c26 -10 44 -57 51 -131 8 -90 -6 -110 -93 -123 -104
-17 -133 8 -147 132 -9 68 2 94 47 113 33 15 114 20 142 9z m1800 -290 c25
-10 42 -53 49 -124 6 -57 5 -69 -13 -92 -17 -21 -32 -27 -86 -33 -102 -11
-125 14 -140 145 -5 50 -3 58 17 77 13 11 32 23 43 26 30 7 111 8 130 1z
m-412 -63 c26 -25 44 -151 27 -190 -14 -35 -26 -40 -102 -48 -95 -9 -125 27
-130 155 -3 65 18 90 88 102 60 10 93 4 117 -19z m-446 -36 c38 -27 63 -184
35 -218 -7 -8 -43 -20 -79 -27 -112 -19 -134 1 -149 135 -5 51 -3 64 13 84 30
37 142 53 180 26z m-428 -53 c16 -12 25 -36 33 -88 19 -123 -2 -152 -116 -156
-60 -3 -70 0 -86 20 -11 13 -21 47 -25 80 -3 31 -8 67 -10 78 -7 32 26 65 71
74 68 13 111 11 133 -8z m-442 -47 c26 -18 43 -73 46 -145 3 -67 -20 -90 -104
-102 -98 -13 -121 9 -134 133 -6 55 -4 68 12 88 30 37 142 53 180 26z m-1927
-286 c0 -6 -4 -7 -10 -4 -5 3 -10 11 -10 16 0 6 5 7 10 4 6 -3 10 -11 10 -16z
m4225 -348 c-9 -8 -36 -10 -30 -2 2 4 11 8 20 8 8 0 13 -3 10 -6z m-45 -35 c0
-2 -7 -7 -16 -10 -8 -3 -12 -2 -9 4 6 10 25 14 25 6z m24 -21 c-4 -8 -8 -15
-10 -15 -2 0 -4 7 -4 15 0 8 4 15 10 15 5 0 7 -7 4 -15z m-214 -4 c0 -6 -4
-13 -10 -16 -5 -3 -10 1 -10 9 0 9 5 16 10 16 6 0 10 -4 10 -9z m247 -6 c0 -8
-4 -12 -9 -9 -5 3 -6 10 -3 15 9 13 12 11 12 -6z m-157 -35 c0 -5 -4 -10 -10
-10 -5 0 -10 5 -10 10 0 6 5 10 10 10 6 0 10 -4 10 -10z m455 -218 c-8 -8 -25
10 -19 20 4 6 9 5 15 -3 4 -7 6 -15 4 -17z m-3283 -899 c-6 -3 -10 -8 -8 -12
3 -4 0 -13 -6 -21 -8 -13 -9 -12 -5 1 3 9 1 21 -4 26 -5 5 0 9 14 10 12 0 16
-1 9 -4z m3 -103 c-3 -5 -12 -10 -18 -10 -7 0 -6 4 3 10 19 12 23 12 15 0z
m65 -30 c0 -5 -4 -10 -10 -10 -5 0 -10 5 -10 10 0 6 5 10 10 10 6 0 10 -4 10
-10z m3783 -6 c-7 -3 -11 -11 -9 -17 1 -7 1 -9 -1 -5 -2 4 -11 4 -19 1 -7 -3
-11 -10 -7 -17 3 -6 2 -7 -2 -3 -14 13 -14 36 0 31 7 -3 16 -1 20 5 3 6 12 11
18 10 9 0 9 -2 0 -5z m-3623 -239 c0 -8 -4 -15 -8 -15 -5 0 -9 7 -9 15 0 8 4
15 9 15 4 0 8 -7 8 -15z m54 -13 c2 -4 1 -14 -3 -21 -6 -10 -10 -9 -15 4 -3 9
-11 13 -17 9 -8 -4 -9 -3 -5 4 8 14 32 16 40 4z m42 -50 c1 -7 0 -8 -3 -2 -2
5 -9 8 -13 5 -5 -3 -12 0 -15 6 -5 7 -1 10 10 7 10 -1 20 -9 21 -16z m211 -89
c-14 -14 -19 -15 -29 -4 -10 11 -10 12 0 7 6 -4 12 -2 12 3 0 6 8 11 17 11 16
0 16 -1 0 -17z m273 -57 c0 -8 5 -18 12 -22 7 -4 8 -3 4 4 -4 7 -2 12 4 12 6
0 8 5 5 10 -3 6 -4 10 -1 10 3 0 10 -9 16 -20 6 -11 7 -20 3 -19 -4 1 -16 -1
-26 -6 -21 -9 -22 -8 -31 23 -5 13 -3 22 3 22 6 0 11 -6 11 -14z"/>
<path d="M5856 8025 c4 -8 8 -15 10 -15 2 0 4 7 4 15 0 8 -4 15 -10 15 -5 0
-7 -7 -4 -15z"/>
<path d="M5835 7990 c4 -6 11 -8 16 -5 14 9 11 15 -7 15 -8 0 -12 -5 -9 -10z"/>
<path d="M3830 7920 c0 -5 5 -10 11 -10 5 0 7 5 4 10 -3 6 -8 10 -11 10 -2 0
-4 -4 -4 -10z"/>
<path d="M6027 6154 c-11 -12 -8 -36 4 -28 8 4 9 -1 5 -17 -6 -23 -6 -23 5 -3
11 22 0 61 -14 48z"/>
<path d="M6060 5920 c0 -5 5 -10 11 -10 5 0 7 5 4 10 -3 6 -8 10 -11 10 -2 0
-4 -4 -4 -10z"/>
<path d="M6070 5833 c0 -5 8 -17 17 -28 14 -18 15 -18 9 -2 -3 10 -6 23 -6 28
0 5 -4 9 -10 9 -5 0 -10 -3 -10 -7z"/>
<path d="M6128 5743 c7 -3 16 -2 19 1 4 3 -2 6 -13 5 -11 0 -14 -3 -6 -6z"/>
<path d="M7345 4530 c-3 -6 1 -7 9 -4 9 3 16 1 16 -6 0 -6 5 -8 11 -4 8 4 7 9
-2 15 -18 11 -26 11 -34 -1z"/>
<path d="M7435 4500 c3 -5 11 -10 16 -10 6 0 7 5 4 10 -3 6 -11 10 -16 10 -6
0 -7 -4 -4 -10z"/>
<path d="M7646 4458 c3 -4 9 -8 15 -8 5 0 9 4 9 8 0 5 -7 9 -15 9 -8 0 -12 -4
-9 -9z"/>
<path d="M7685 4450 c-3 -6 1 -7 9 -4 18 7 21 14 7 14 -6 0 -13 -4 -16 -10z"/>
<path d="M7802 4421 c-10 -6 -10 -10 1 -19 10 -9 17 -9 28 1 8 6 12 11 10 10
-2 -2 -9 1 -15 7 -7 5 -17 5 -24 1z"/>
<path d="M7959 4397 c6 -8 7 -18 3 -22 -4 -5 -1 -5 6 -1 10 6 10 11 1 22 -6 8
-14 14 -16 14 -3 0 0 -6 6 -13z"/>
<path d="M8130 4340 c9 -16 40 -19 40 -3 0 3 -7 3 -15 -1 -9 -3 -15 0 -15 9 0
8 -5 15 -10 15 -7 0 -7 -6 0 -20z"/>
<path d="M8420 4291 c0 -6 4 -13 10 -16 6 -3 7 1 4 9 -7 18 -14 21 -14 7z"/>
<path d="M8450 4265 c-7 -9 -8 -15 -2 -15 5 0 12 7 16 15 3 8 4 15 2 15 -2 0
-9 -7 -16 -15z"/>
<path d="M8530 4270 c-9 -6 -10 -10 -3 -10 6 0 15 5 18 10 8 12 4 12 -15 0z"/>
<path d="M8530 4248 c13 -14 49 -27 54 -20 3 5 0 9 -7 9 -7 0 -21 4 -32 8 -11
5 -18 6 -15 3z"/>
<path d="M2490 2790 c-9 -6 -10 -10 -3 -10 6 0 15 5 18 10 8 12 4 12 -15 0z"/>
<path d="M3515 1401 c-3 -5 0 -13 6 -17 7 -4 9 -3 5 4 -3 5 0 13 6 15 9 4 10
6 1 6 -6 1 -14 -3 -18 -8z"/>
<path d="M7715 8501 c3 -5 2 -11 -2 -14 -5 -2 -3 -3 2 -2 6 1 19 -7 30 -18 11
-11 14 -17 8 -13 -7 4 -13 2 -13 -3 0 -6 12 -12 28 -12 20 -1 22 -2 7 -6 -45
-11 -57 -39 -30 -67 9 -9 15 -21 14 -28 -3 -29 2 -40 16 -34 9 3 15 -1 15 -11
0 -13 2 -14 17 -2 9 8 14 9 10 2 -4 -6 -1 -14 5 -16 10 -4 9 -6 -1 -6 -11 -1
-10 -5 4 -21 10 -11 22 -17 27 -14 4 3 7 1 6 -4 -2 -5 51 -66 117 -137 215
-229 418 -497 570 -755 74 -126 204 -384 250 -497 16 -39 32 -70 35 -68 3 2 6
-8 7 -22 0 -14 6 -29 13 -33 6 -4 11 -10 11 -14 -3 -21 1 -28 12 -23 8 3 14
-1 14 -9 0 -7 -4 -11 -9 -8 -4 3 -8 0 -8 -6 0 -7 6 -10 14 -7 8 3 17 -1 20
-10 9 -21 -3 -31 -14 -13 -6 8 -10 10 -10 4 0 -5 7 -19 15 -30 13 -17 14 -17
15 -1 0 9 5 17 11 17 8 0 8 4 0 14 -10 12 -9 14 6 10 11 -3 18 -14 18 -30 0
-17 -4 -23 -15 -19 -8 4 -11 3 -8 0 4 -4 2 -19 -3 -33 -6 -15 -7 -23 -3 -19 4
4 14 1 22 -6 13 -10 14 -9 7 3 -15 23 -14 40 0 40 7 0 12 -7 11 -17 -1 -19 51
-38 57 -20 3 9 10 7 23 -3 17 -14 18 -14 6 1 -10 14 -10 20 3 33 9 9 12 16 7
16 -6 0 -8 10 -5 21 4 16 2 20 -8 17 -15 -5 -20 -29 -7 -38 4 -3 3 -12 -3 -20
-8 -13 -10 -13 -19 0 -6 10 -10 11 -10 3 0 -7 -9 -13 -19 -13 -13 0 -18 6 -16
18 1 9 0 22 -4 27 -8 14 -8 55 0 49 4 -2 10 0 14 6 3 5 11 10 18 10 6 0 4 -7
-5 -17 -16 -15 -16 -17 0 -30 16 -12 16 -13 0 -7 -18 6 -25 -10 -9 -20 14 -9
32 20 25 40 -4 14 -3 16 4 5 6 -8 15 -10 22 -6 10 6 9 11 -5 22 -14 10 -15 13
-4 14 8 0 6 4 -6 9 -11 5 -15 9 -8 9 6 1 9 10 6 22 -4 13 -11 18 -21 14 -12
-4 -12 -3 -3 9 23 28 -165 429 -337 716 -121 202 -236 362 -396 550 -107 126
-404 425 -413 416 -3 -3 -11 4 -17 17 -7 12 -17 22 -23 22 -6 0 -22 9 -35 21
-26 22 -62 39 -53 25z m91 -107 c10 -8 13 -13 7 -9 -7 3 -13 2 -13 -3 0 -6 -7
-12 -15 -16 -13 -5 -14 -2 -4 17 11 20 11 21 -5 8 -14 -12 -16 -12 -10 3 8 20
15 20 40 0z m1101 -1631 c-3 -3 -11 -2 -17 2 -9 6 -9 10 1 16 14 8 27 -7 16
-18z m-40 -5 c-3 -8 -6 -5 -6 6 -1 11 2 17 5 13 3 -3 4 -12 1 -19z m75 -73
c-4 -25 -42 -37 -42 -14 0 5 4 8 9 4 5 -3 12 4 16 15 9 29 23 25 17 -5z"/>
<path d="M7671 8463 c-10 -26 -10 -27 4 -9 8 11 15 23 15 28 0 15 -7 8 -19
-19z"/>
<path d="M7707 8463 c-4 -3 -7 -13 -7 -21 0 -12 3 -12 15 -2 8 7 15 16 15 21
0 11 -14 12 -23 2z"/>
<path d="M7695 8389 c-4 -6 -4 -13 -1 -16 3 -4 6 -1 6 6 0 7 5 9 10 6 6 -4 8
-11 5 -16 -4 -5 -1 -9 4 -9 13 0 13 3 5 24 -7 18 -20 21 -29 5z"/>
<path d="M6898 8288 c-9 -7 -22 -26 -28 -42 -23 -63 62 -114 109 -67 24 24 27
69 9 94 -18 23 -69 32 -90 15z"/>
<path d="M1723 8003 c-38 -34 -120 -139 -199 -253 -185 -266 -341 -555 -454
-839 -63 -158 -68 -175 -47 -168 6 2 11 11 11 20 -1 9 3 14 8 11 5 -3 7 -12 4
-20 -3 -7 -1 -16 4 -19 5 -3 10 3 12 12 2 10 6 14 9 8 3 -5 0 -21 -7 -35 l-13
-24 -10 24 c-7 20 -8 15 -6 -24 2 -27 9 -54 16 -60 9 -8 11 -7 6 6 -3 9 2 23
14 34 12 11 17 24 13 37 -4 13 -2 17 5 13 6 -4 11 -21 11 -37 0 -25 3 -28 18
-20 9 5 25 31 35 58 75 199 202 475 295 638 70 123 222 350 305 454 70 87 98
142 77 149 -5 2 -6 11 -3 20 3 9 3 14 -2 10 -4 -4 -14 -1 -22 7 -20 20 -57 19
-80 -2z m-649 -1219 c3 -8 2 -12 -4 -9 -6 3 -10 10 -10 16 0 14 7 11 14 -7z
m61 -43 c-3 -6 -11 -11 -17 -11 -6 0 -6 6 2 15 14 17 26 13 15 -4z m5 -25 c0
-2 -7 -6 -15 -10 -8 -3 -15 -1 -15 4 0 6 7 10 15 10 8 0 15 -2 15 -4z"/>
<path d="M7277 7783 c-5 -7 -8 -24 -23 -107 -9 -52 -38 -117 -62 -141 -34 -35
-61 -48 -149 -75 -40 -12 -73 -26 -73 -30 0 -4 17 -11 37 -15 158 -29 232
-110 260 -282 8 -45 20 -41 33 10 23 89 44 143 66 173 29 37 98 76 177 98 32
9 55 21 52 26 -4 6 -12 10 -20 10 -36 0 -149 44 -179 70 -40 35 -70 101 -86
190 -13 65 -23 89 -33 73z"/>
<path d="M7872 7308 c-17 -17 -15 -53 3 -68 24 -20 65 3 65 34 0 37 -44 58
-68 34z"/>
<path d="M1695 6905 c-14 -13 -25 -33 -25 -45 0 -24 42 -70 64 -70 28 0 47 13
62 41 13 26 13 32 0 58 -25 48 -64 54 -101 16z"/>
<path d="M7806 6893 c-3 -10 -12 -69 -21 -131 -41 -282 -99 -385 -251 -441
-46 -18 -164 -45 -286 -66 -21 -3 -38 -10 -38 -15 0 -11 7 -13 163 -40 279
-48 339 -102 412 -368 24 -83 43 -81 61 8 39 195 116 289 273 335 38 12 272
55 295 55 3 0 6 4 6 9 0 4 -61 20 -135 35 -167 33 -205 47 -273 93 -101 69
-130 151 -177 496 -6 48 -19 61 -29 30z"/>
<path d="M7054 6872 c-15 -10 -34 -47 -34 -67 0 -23 45 -65 70 -65 29 0 70 44
70 75 0 47 -67 84 -106 57z"/>
<path d="M1000 6708 c0 -19 2 -20 10 -8 13 19 13 30 0 30 -5 0 -10 -10 -10
-22z"/>
<path d="M988 6673 c7 -3 16 -2 19 1 4 3 -2 6 -13 5 -11 0 -14 -3 -6 -6z"/>
<path d="M1117 6653 c-4 -3 -7 -11 -7 -17 0 -6 5 -5 12 2 6 6 9 14 7 17 -3 3
-9 2 -12 -2z"/>
<path d="M1076 6637 c3 -10 9 -15 12 -12 3 3 0 11 -7 18 -10 9 -11 8 -5 -6z"/>
<path d="M982 6620 c0 -14 2 -19 5 -12 2 6 2 18 0 25 -3 6 -5 1 -5 -13z"/>
<path d="M1008 6623 c6 -2 12 -12 12 -21 0 -14 2 -14 9 -3 7 11 9 11 14 0 4
-10 6 -10 6 2 1 17 -19 30 -42 28 -8 0 -8 -2 1 -6z"/>
<path d="M9035 6509 c-4 -6 -5 -12 -2 -15 2 -3 7 2 10 11 7 17 1 20 -8 4z"/>
<path d="M8980 6496 c0 -2 7 -6 15 -10 8 -3 15 -1 15 4 0 6 -7 10 -15 10 -8 0
-15 -2 -15 -4z"/>
<path d="M9060 6480 c-6 -11 -9 -20 -8 -20 2 0 11 9 21 20 9 11 13 20 7 20 -5
0 -14 -9 -20 -20z"/>
<path d="M1635 6425 c-13 -59 -37 -130 -48 -145 -21 -27 -70 -57 -126 -75 -60
-19 -56 -27 23 -46 68 -16 116 -66 140 -146 11 -34 22 -60 26 -58 4 3 11 21
15 42 9 47 37 102 64 127 12 11 52 30 89 42 39 13 61 24 52 28 -8 3 -41 15
-73 27 -69 25 -109 72 -127 152 -18 75 -27 88 -35 52z"/>
<path d="M9037 6429 c7 -7 15 -10 18 -7 3 3 -2 9 -12 12 -14 6 -15 5 -6 -5z"/>
<path d="M8527 5785 c-23 -102 -51 -133 -147 -164 -27 -9 -49 -20 -50 -25 -1
-5 26 -18 59 -28 77 -24 113 -65 137 -159 10 -37 21 -66 25 -64 4 3 10 22 14
42 10 55 41 122 67 143 13 11 51 29 86 40 34 12 62 25 62 30 0 5 -17 11 -38
15 -48 8 -110 43 -133 75 -11 14 -26 55 -35 93 -9 37 -20 67 -25 67 -4 0 -14
-29 -22 -65z"/>
<path d="M1645 5555 c-39 -38 -32 -86 15 -110 63 -33 128 30 96 93 -25 49 -72
56 -111 17z"/>
<path d="M1430 5103 c-17 -90 -46 -158 -82 -188 -16 -14 -67 -36 -114 -50 -46
-15 -84 -29 -84 -33 0 -4 26 -13 58 -21 141 -33 198 -96 228 -257 3 -19 10
-34 14 -34 4 0 15 30 24 66 33 132 80 185 193 218 32 10 67 21 78 26 23 9 26
8 -85 40 -98 29 -140 69 -169 164 -12 37 -21 76 -21 86 0 24 -10 50 -20 50 -4
0 -13 -30 -20 -67z"/>
<path d="M790 4551 c0 -5 5 -13 10 -16 6 -3 10 -2 10 4 0 5 -4 13 -10 16 -5 3
-10 2 -10 -4z"/>
<path d="M857 4544 c4 -11 -1 -22 -12 -30 -22 -16 -12 -18 16 -4 20 11 24 4
10 -19 -5 -8 -14 -10 -21 -6 -7 4 -16 2 -21 -6 -6 -10 -9 -11 -9 -1 0 6 -9 12
-21 12 -11 0 -17 5 -14 10 3 6 1 10 -4 10 -6 0 -10 5 -8 11 1 6 -5 14 -13 16
-12 4 -12 3 -1 -5 11 -8 11 -10 0 -15 -10 -4 -10 -6 -1 -6 6 -1 12 -6 12 -12
0 -5 -4 -8 -8 -5 -5 3 -9 -1 -9 -9 0 -8 4 -15 8 -15 4 0 5 -9 2 -20 -6 -22 12
-28 20 -7 3 6 4 2 4 -9 -1 -14 -6 -20 -15 -17 -15 6 -15 6 19 -169 27 -141 79
-340 106 -408 3 -8 5 -18 5 -22 -1 -5 4 -8 12 -8 21 0 28 28 8 33 -9 3 2 4 26
2 36 -2 45 1 53 19 8 18 9 17 4 -6 -3 -18 -1 -28 6 -28 7 0 5 -8 -6 -19 -16
-19 -16 -20 5 -18 18 1 21 6 15 33 -3 18 -1 34 4 36 6 2 -5 59 -25 133 -19 72
-46 186 -60 255 -13 69 -29 133 -35 143 -5 10 -6 17 0 17 6 0 6 12 1 30 -5 17
-7 30 -5 30 2 0 -2 12 -10 27 -8 15 -11 31 -8 36 3 5 -1 13 -8 18 -21 13 -29
11 -22 -7z m18 -92 c-3 -3 -11 0 -18 7 -9 10 -8 11 6 5 10 -3 15 -9 12 -12z
m-45 -2 c0 -5 -2 -10 -4 -10 -3 0 -8 5 -11 10 -3 6 -1 10 4 10 6 0 11 -4 11
-10z m67 -14 c0 -8 -6 -12 -15 -9 -11 5 -11 7 0 14 7 5 13 9 14 9 0 0 1 -6 1
-14z m-40 -21 c0 -8 -4 -12 -9 -9 -4 3 -8 9 -8 15 0 5 4 9 8 9 5 0 9 -7 9 -15z
m93 -539 c0 -11 -19 -15 -25 -6 -3 5 1 10 9 10 9 0 16 -2 16 -4z"/>
<path d="M825 4530 c3 -5 8 -10 11 -10 2 0 4 5 4 10 0 6 -5 10 -11 10 -5 0 -7
-4 -4 -10z"/>
<path d="M7684 3924 c-18 -14 -18 -15 4 -4 12 6 22 13 22 15 0 8 -5 6 -26 -11z"/>
<path d="M963 3816 c-10 -11 -9 -15 3 -20 8 -3 12 -2 9 3 -3 6 3 14 12 20 14
8 15 10 3 10 -8 0 -20 -6 -27 -13z"/>
<path d="M950 3754 c0 -8 5 -12 10 -9 6 4 8 11 5 16 -9 14 -15 11 -15 -7z"/>
<path d="M6010 2600 c0 -5 5 -10 11 -10 6 0 9 -7 5 -15 -3 -8 -1 -15 3 -15 19
0 19 30 1 40 -14 7 -20 7 -20 0z"/>
<path d="M5980 2545 c-9 -10 -9 -15 -1 -15 6 0 11 5 11 11 0 8 5 7 15 -1 13
-11 14 -10 9 4 -8 20 -18 20 -34 1z"/>
<path d="M6800 2299 c0 -7 -7 -21 -17 -31 -9 -10 -11 -18 -6 -18 16 0 45 48
33 55 -6 3 -10 1 -10 -6z"/>
<path d="M3878 2293 c7 -3 16 -2 19 1 4 3 -2 6 -13 5 -11 0 -14 -3 -6 -6z"/>
<path d="M3903 2274 c-12 -26 -12 -26 7 -9 11 10 17 22 14 26 -7 12 -7 12 -21
-17z"/>
<path d="M6725 2250 c10 -11 20 -20 23 -20 3 0 -3 9 -13 20 -10 11 -20 20 -23
20 -3 0 3 -9 13 -20z"/>
<path d="M5725 2208 c-27 -15 -35 -28 -35 -60 0 -33 31 -68 60 -68 27 0 70 43
70 70 0 23 -42 70 -62 70 -7 0 -22 -6 -33 -12z"/>
<path d="M6308 2154 c-3 -5 -11 -40 -18 -77 -20 -108 -66 -159 -176 -194 -30
-9 -54 -20 -54 -24 0 -3 21 -12 46 -18 66 -17 121 -47 141 -78 10 -15 30 -63
44 -107 25 -75 28 -79 34 -51 40 170 62 196 200 235 67 19 68 18 -40 56 -74
25 -117 75 -139 160 -22 87 -31 110 -38 98z"/>
<path d="M5165 2039 c-2 -8 -12 -48 -20 -89 -31 -151 -75 -200 -214 -240 -83
-23 -93 -33 -43 -43 54 -11 143 -49 173 -74 39 -33 66 -87 90 -180 10 -42 21
-78 23 -80 2 -3 10 22 16 54 19 89 47 156 81 191 37 37 120 79 178 88 53 8 52
20 -1 34 -166 42 -208 85 -249 257 -23 95 -26 103 -34 82z"/>
<path d="M2245 1570 c3 -5 8 -10 11 -10 2 0 4 5 4 10 0 6 -5 10 -11 10 -5 0
-7 -4 -4 -10z"/>
<path d="M2362 1518 c6 -17 38 -23 38 -8 0 6 -4 8 -10 5 -5 -3 -10 -1 -10 4 0
6 -5 11 -11 11 -6 0 -9 -6 -7 -12z"/>
<path d="M7105 1258 c3 -7 -9 -23 -26 -34 -18 -13 -26 -24 -20 -28 6 -4 11 -2
11 3 0 6 5 11 11 11 14 0 38 30 39 48 0 6 -4 12 -10 12 -5 0 -7 -6 -5 -12z"/>
<path d="M7033 1243 c0 -9 4 -10 14 -2 7 6 13 12 13 14 0 1 -6 2 -13 2 -8 0
-14 -6 -14 -14z"/>
<path d="M7136 1235 c4 -8 7 -15 9 -15 2 0 5 7 9 15 3 9 0 15 -9 15 -9 0 -12
-6 -9 -15z"/>
<path d="M7020 1186 c0 -9 -5 -16 -11 -16 -5 0 -7 6 -3 13 5 7 -2 6 -16 -4
-13 -9 -26 -22 -28 -30 -2 -8 2 -6 8 4 6 9 16 17 21 17 6 0 8 -4 5 -9 -4 -5 3
-7 14 -4 11 3 20 10 20 15 0 5 5 6 11 2 7 -4 10 -1 7 6 -6 20 -28 24 -28 6z"/>
<path d="M6856 1133 c-4 -9 -3 -20 1 -24 4 -4 9 3 9 17 2 28 -1 31 -10 7z"/>
<path d="M3890 1056 c0 -2 7 -9 15 -16 9 -7 15 -8 15 -2 0 5 -7 12 -15 16 -8
3 -15 4 -15 2z"/>
<path d="M6625 1050 c-3 -5 -1 -10 4 -10 6 0 11 5 11 10 0 6 -2 10 -4 10 -3 0
-8 -4 -11 -10z"/>
<path d="M3921 994 c0 -11 3 -14 6 -6 3 7 2 16 -1 19 -3 4 -6 -2 -5 -13z"/>
<path d="M4070 980 c0 -5 5 -10 11 -10 5 0 7 5 4 10 -3 6 -8 10 -11 10 -2 0
-4 -4 -4 -10z"/>
<path d="M4146 924 c-6 -15 -4 -15 11 -3 10 7 20 15 22 16 2 2 -3 3 -11 3 -9
0 -19 -7 -22 -16z"/>
<path d="M4385 910 c-3 -5 -1 -11 5 -15 5 -3 10 -3 11 2 0 4 4 -1 8 -11 6 -16
9 -17 13 -5 7 17 -28 44 -37 29z"/>
<path d="M4384 841 c1 -16 5 -33 10 -38 5 -5 6 0 3 10 -4 11 -3 16 3 12 14 -9
12 7 -4 28 -12 16 -14 15 -12 -12z"/>
<path d="M4480 820 c0 -17 4 -30 10 -30 5 0 7 7 4 15 -5 11 -2 13 10 9 12 -4
15 -2 10 9 -3 9 -12 18 -20 21 -10 4 -14 -3 -14 -24z"/>
<path d="M4443 833 c4 -6 3 -14 -3 -18 -5 -3 -10 -1 -10 5 0 6 -4 8 -10 5 -5
-3 -10 -10 -10 -15 0 -9 19 -8 37 3 7 4 13 0 16 -10 4 -15 5 -15 6 -2 0 9 -7
23 -16 30 -10 8 -14 9 -10 2z"/>
<path d="M4535 830 c-3 -5 -1 -10 4 -10 6 0 11 5 11 10 0 6 -2 10 -4 10 -3 0
-8 -4 -11 -10z"/>
<path d="M4565 819 c-4 -12 -3 -25 2 -30 4 -4 9 5 9 21 2 35 -2 38 -11 9z"/>
<path d="M4590 818 c0 -11 7 -16 20 -15 21 1 26 12 10 22 -5 3 -10 0 -10 -7 0
-9 -3 -9 -10 2 -8 13 -10 13 -10 -2z"/>
<path d="M4771 813 c0 -4 4 -17 8 -27 6 -15 9 -16 13 -5 3 8 -1 20 -8 27 -8 7
-14 9 -13 5z"/>
<path d="M4636 792 c-2 -4 4 -9 15 -9 11 -1 17 2 14 8 -7 11 -22 12 -29 1z"/>
<path d="M4685 789 c-11 -16 -1 -19 13 -3 7 8 8 14 3 14 -5 0 -13 -5 -16 -11z"/>
</g>
</svg>
